<?xml version="1.0" encoding="UTF-8"?>
<!DOCTYPE svg PUBLIC "-//W3C//DTD SVG 1.1//EN" "http://www.w3.org/Graphics/SVG/1.1/DTD/svg11.dtd">
<svg xmlns="http://www.w3.org/2000/svg" version="1.1" width="128px" height="128px" style="shape-rendering:geometricPrecision; text-rendering:geometricPrecision; image-rendering:optimizeQuality; fill-rule:evenodd; clip-rule:evenodd" xmlns:xlink="http://www.w3.org/1999/xlink">
<g><path fill="#57ce47" fill-opacity="0.949" d="M 45.97,51.68 c 2.12,0.65 3.43,3.56 4.39,5.36 c 1.28,3.61 2.28,7.28 2.99,11.03 c -0.75,0.5 -1.18,1.2 -1.29,2.1 c -0.45,-0.11 -0.79,-0.38 -1,-0.8 c -0.14,-2.1 -0.43,-4.18 -0.89,-6.24 c -0.29,-1.21 -0.67,-2.38 -1.16,-3.52 c -0.62,-1.24 -1.26,-2.46 -1.91,-3.68 c -0.94,-1.25 -1.32,-2.67 -1.13,-4.25 Z M 51.22,83.98 c 0.58,0.17 1.12,0.09 1.63,-0.23 c 0.43,0.9 1.15,1.44 2.16,1.61 c 0.84,2.09 2.22,3.76 4.15,5.01 c 2.66,1.37 5.19,2.93 7.58,4.69 c 0.04,0.41 0.08,0.83 0.11,1.24 c -0.53,0.17 -0.88,0.53 -1.04,1.08 c -5.67,-2.71 -10.33,-6.62 -13.99,-11.72 c -0.35,-0.51 -0.55,-1.07 -0.6,-1.68 Z M 66.85,96.3 c 0.83,-0.11 1.65,-0.23 2.47,-0.36 c 3.11,0.13 5.42,1.74 8.69,1.11 c 0.62,1.49 1.7,2.09 3.24,1.8 c 3.26,-0.58 6.49,-1.26 9.7,-2.04 c 0.27,0.01 0.53,0.02 0.8,0.03 c 0.09,0.47 0.17,0.93 0.26,1.39 c -7.35,2.64 -16.94,4.17 -24.12,0.03 c -0.19,-0.73 -0.54,-1.38 -1.04,-1.96 Z"/></g>
<g><path fill="#51c742" fill-opacity="0.918" d="M 103,26.15 c 0.09,0.33 0.18,0.67 0.27,1 c -4.75,5.35 -11.59,5.58 -18.1,6.02 c 0.26,-0.89 0.66,-1.72 1.17,-2.49 c 3.3,-0.17 6.61,-0.4 9.94,-0.69 c 0.58,-0.81 1.25,-1.54 2,-2.19 c 1.68,-0.13 3.19,-2.13 4.72,-1.65 Z M 12.99,61.78 c 3.66,0.61 7.24,1.53 10.74,2.75 c 3.79,1.8 6.88,4.43 9.28,7.91 c 2.86,3.66 4.57,7.79 5.15,12.39 c -0.41,0.03 -0.82,0.07 -1.23,0.1 c 0,-0.62 -0.31,-0.88 -0.94,-0.79 c -0.05,-1.26 -0.54,-2.33 -1.49,-3.21 c -0.27,-3.67 -3.03,-6.1 -4.52,-9.27 c -1.16,-0.58 -2.34,-1.11 -3.53,-1.59 c -0.55,-1.18 -1.46,-1.91 -2.74,-2.2 c -1.2,-1.48 -0.95,-3.14 -3.28,-2.29 c -1.68,-0.81 -3.46,-1.14 -5.34,-0.99 c -0.27,-0.9 -0.87,-1.34 -1.81,-1.32 c -0.1,-0.49 -0.2,-0.99 -0.29,-1.49 Z"/></g>
<g><path fill="#2ca11d" d="M 91.94,50.85 c 0.19,0.43 0.49,0.76 0.88,1.01 c 0.41,0.15 0.82,0.3 1.22,0.45 c -0.02,0.29 -0.05,0.58 -0.07,0.87 c -0.82,0.38 -1.65,0.72 -2.5,1.04 c -0.56,-0.64 -1.25,-0.99 -2.07,-1.07 c -0.7,-0.74 -1.55,-1.23 -2.55,-1.45 c -0.54,-0.42 -1.09,-0.85 -1.63,-1.28 c 3.45,-2.47 3.52,-0.57 6.72,0.43 Z M 47.1,55.93 c 0.65,1.22 1.29,2.44 1.91,3.68 c -0.61,0.55 -0.85,1.21 -0.71,1.99 c -0.89,0.67 -1.45,1.55 -1.68,2.65 c -0.41,0.05 -0.81,0.16 -1.19,0.34 c -0.44,-0.94 -0.76,-1.92 -0.95,-2.94 c 0.89,-2.11 2.77,-3.17 2.62,-5.72 Z M 82.81,72 c -0.86,0.1 -1.73,0.17 -2.6,0.21 c -0.53,-0.93 -0.86,-2.93 -2.04,-3.23 c -0.43,-0.44 -0.87,-0.85 -1.34,-1.25 c 0.45,-0.46 1.02,-0.66 1.68,-0.6 c 2.25,-0.33 3.62,0.61 4.11,2.84 c 0.27,0.66 0.33,1.34 0.19,2.03 Z M 78.01,97.05 c -3.27,0.63 -5.58,-0.98 -8.69,-1.11 c 0.34,-0.8 0.19,-1.43 -0.46,-1.89 c -0.03,-0.41 -0.06,-0.82 -0.09,-1.23 c -0.06,-0.36 -0.27,-0.58 -0.63,-0.64 c -0.28,-0.86 -0.72,-1.63 -1.33,-2.3 c -0.07,-0.4 -0.29,-0.63 -0.68,-0.68 c -0.15,-0.45 -0.3,-0.9 -0.45,-1.35 c 0.73,-1.67 2.98,-0.56 4.16,-0.03 c 1.48,2.28 2.72,4.69 3.72,7.23 c 0.42,0.71 1.04,1.04 1.85,0.97 c 2.39,-1.68 -4.02,-7.01 0,-6.84 c 2.41,0.44 2.86,5.99 2.6,7.87 Z"/></g>
<g><path fill="#53c844" fill-opacity="0.941" d="M 64.73,67.98 c 0.72,-0.13 1.44,-0.25 2.16,-0.36 c 0.4,0.21 0.81,0.43 1.21,0.64 c 2.63,1.82 5.52,3.06 8.67,3.71 c 1.13,0.28 2.28,0.36 3.44,0.24 c 0.87,-0.04 1.74,-0.11 2.6,-0.21 c 3.42,-0.21 3.49,-0.28 6.43,1.06 c -2.42,2.08 -10.56,1.33 -13.6,0.71 c -4.34,-0.62 -7.98,-2.55 -10.91,-5.79 Z M 60.02,77.18 c 0.45,-0.24 0.93,-0.38 1.44,-0.42 c 13.22,-0.84 19.82,2.42 27.91,12.84 c -0.91,0.96 -1.95,1.17 -3.13,0.63 c -0.85,-1.67 -1.89,-3.22 -3.13,-4.65 c -1.62,-1.82 -3.57,-3.16 -5.86,-4.01 c -2.3,-0.99 -4.68,-1.73 -7.14,-2.22 c -0.72,-0.1 -1.44,-0.19 -2.17,-0.28 c -1.58,-0.2 -3.16,-0.44 -4.74,-0.71 c -1.02,-0.11 -2.04,-0.11 -3.06,0.01 c -0.04,-0.4 -0.08,-0.79 -0.12,-1.19 Z"/></g>
<g><path fill="#52c742" fill-opacity="0.953" d="M 104.31,45.98 c 0.88,0.05 1.59,0.39 2.14,1.02 c -6.64,8.28 -13.21,10.85 -23.91,10.28 c -2.91,-0.58 -5.81,-1.14 -8.71,-1.68 c -0.03,-0.18 -0.07,-0.36 -0.11,-0.54 c 0.77,-0.42 1.56,-0.79 2.37,-1.12 c 2.82,0.25 5.62,0.63 8.4,1.14 c 0.43,-0.07 0.82,-0.22 1.19,-0.45 c 1.96,0.31 3.89,0.17 5.79,-0.41 c 0.85,-0.32 1.68,-0.66 2.5,-1.04 c 0.89,-0.35 1.76,-0.75 2.6,-1.2 c 2.36,-0.21 3.1,0.77 4.03,-1.92 c 1.83,-0.82 3.06,-2.18 3.71,-4.08 Z"/></g>
<g><path fill="#29961b" d="M 70.11,79.35 c 2.46,0.49 4.84,1.23 7.14,2.22 c -1.01,0.34 -2.02,0.66 -3.04,0.97 c -1.19,0.96 -2.42,1.85 -3.67,2.67 c -0.83,-0.12 -4.75,0.17 -4.2,-1.53 c 1.1,-0.81 2.18,-1.67 3.24,-2.57 c 0.32,-0.54 0.5,-1.13 0.53,-1.76 Z M 77.25,81.57 c 2.29,0.85 4.24,2.19 5.86,4.01 c -1.59,0.69 -3.17,1.37 -4.74,2.05 c -0.96,-0.28 -4.56,-0.49 -4.15,-2.02 c 0.97,-0.72 1.89,-1.5 2.77,-2.35 c 0.22,-0.54 0.31,-1.1 0.26,-1.69 Z"/></g>
<g><path fill="#33a324" d="M 49.17,63.16 c 0.33,-0.01 0.67,-0.02 1,-0.03 c 0.46,2.06 0.75,4.14 0.89,6.24 c 0.21,0.42 0.55,0.69 1,0.8 c -0.61,0.69 -1.3,1.28 -2.08,1.78 c -0.34,-0.01 -0.68,-0.03 -1.03,-0.05 c 0.17,-1.17 0.51,-2.29 1.02,-3.35 c -0.54,-1.23 -1.84,-0.48 -2.71,-1.16 c 0.29,-0.79 0.53,-1.59 0.71,-2.41 c 0.86,-0.28 1.26,-0.89 1.2,-1.82 Z M 55.01,85.36 c 1.03,-0.37 1.99,-0.27 2.87,0.31 c 0.37,0.67 1.7,5.3 2.96,2.74 c 0.44,-4.76 1.91,-1.11 2.91,0.63 c 0.26,0.48 0.55,0.93 0.9,1.35 c 0.08,0.21 0.16,0.42 0.24,0.63 c 0.17,0.51 0.46,0.94 0.86,1.3 c 0.15,0.33 0.3,0.66 0.44,0.99 c 0.23,0.31 0.5,0.57 0.82,0.77 c -0.09,0.33 -0.18,0.65 -0.27,0.98 c -2.39,-1.76 -4.92,-3.32 -7.58,-4.69 c -1.93,-1.25 -3.31,-2.92 -4.15,-5.01 Z"/></g>
<g><path fill="#54cb45" fill-opacity="0.933" d="M 58.21,28.8 c 0.33,-0.01 0.67,-0.02 1,-0.02 c 6.22,4.75 8.68,12.82 10.22,20.16 c -0.57,0.46 -1.13,0.92 -1.68,1.39 c -2.35,-1.35 -0.95,-3.78 -1.68,-5.88 c -0.92,-2.21 -1.66,-4.48 -2.21,-6.81 c -1.8,-1.79 -3.55,-3.64 -5.25,-5.54 c -0.37,-1.07 -0.5,-2.17 -0.4,-3.3 Z"/></g>
<g><path fill="#52c643" fill-opacity="0.863" d="M 47.86,25.84 c 0.11,0.49 0.38,0.87 0.8,1.13 c 0.12,0.41 0.23,0.81 0.35,1.22 c -2.26,1.46 -0.48,2.52 0.7,3.59 c -0.07,1.29 -0.33,2.54 -0.79,3.74 c -0.04,3.1 3.48,8.18 5.35,10.75 c 1.41,1.4 4.16,2.54 3.67,4.97 c -9.61,-5.3 -11.72,-14.33 -10.81,-24.66 c 0.02,-0.48 0.27,-0.72 0.73,-0.74 Z"/></g>
<g><path fill="#4ec03f" fill-opacity="0.871" d="M 83.01,60.09 c 1.98,-0.23 3.96,-0.2 5.93,0.12 c 4.9,0.93 8.64,3.51 11.22,7.75 c -0.49,0.09 -0.97,0.05 -1.44,-0.13 c -1.49,-2.46 -1.25,-1.72 -4.04,-2.12 c -1.15,-2.64 -2.84,-2.65 -5.36,-3.35 c -2.6,-0.21 -5.19,-0.44 -7.78,-0.68 c -1.36,0.38 -2.73,0.72 -4.1,1 c -0.59,-0.07 -1.07,-0.35 -1.43,-0.83 c -0.02,-0.4 -0.04,-0.8 -0.06,-1.2 c 1.8,0.64 5.1,-0.56 7.06,-0.56 Z"/></g>
<g><path fill="#48b939" fill-opacity="0.729" d="M 109.11,20.34 c 0.41,-0.74 0.98,-1.35 1.7,-1.83 c -1.5,-0.21 -2.97,-0.61 -4.4,-1.19 c -2.15,-0.01 -4.31,0.03 -6.49,0.11 c -2.07,0.83 -4.07,1.81 -6,2.93 c -1.09,1.11 -2.17,3.31 -4.09,2.49 c 0.75,-1.11 1.57,-2.16 2.45,-3.15 c 3.94,-2.36 6.12,-4.56 11.22,-3.99 c 2.63,0.31 5.23,0.71 7.79,1.21 c 2.47,2 0.38,3.89 -2.18,3.42 Z M 109.11,20.34 c -0.71,1.4 -1.66,2.59 -2.85,3.58 c -0.62,-2.21 -0.19,-5.02 2.85,-3.58 Z"/></g>
<g><path fill="#50c540" fill-opacity="0.886" d="M 12.71,68.95 c 0.84,-0.15 1.56,0.06 2.16,0.64 c -0.08,2.32 0.46,4.48 1.64,6.48 c 0.75,0.6 1.3,1.35 1.63,2.26 c 1.71,1.24 3.31,2.62 4.8,4.14 c 1.67,1.01 4.76,1.13 4.81,3.67 c -0.32,0.02 -0.64,0.03 -0.96,0.05 c -3.79,-1.42 -7.12,-3.55 -9.98,-6.38 c -1.87,-3.32 -3.85,-6.99 -4.1,-10.86 Z"/></g>
<g><path fill="#2b9c1c" d="M 89.3,95.33 c -0.04,0.13 -0.07,0.26 -0.11,0.39 c 0.7,0.22 1.28,0.59 1.76,1.09 c -3.21,0.78 -6.44,1.46 -9.7,2.04 c -0.3,-1.8 -0.66,-3.59 -1.09,-5.37 c -0.85,-3.8 2.07,-1.62 3.53,-0.68 c 0.66,1.46 -1.04,3.16 -0.11,4.22 c 2.49,0.77 1.68,-3.26 5.72,-1.69 Z"/></g>
<g><path fill="#54ca44" fill-opacity="0.863" d="M 35.52,51.02 c 0.23,-0.02 0.46,-0.04 0.69,-0.06 c 0.08,3.48 -1.04,7.18 1.4,10.06 c 0.67,2.68 1.95,5.01 3.83,7 c 0.31,0.65 0.47,1.34 0.49,2.07 c -1.98,-0.73 -3.89,-4.61 -5.3,-6.16 c -1.95,-4.16 -2.32,-8.46 -1.11,-12.91 Z"/></g>
<g><path fill="#309b21" d="M 36.03,50.01 c 0.54,-0.02 1.06,-0.13 1.56,-0.34 c 0.3,0.83 0.87,1.37 1.7,1.62 c -0.16,0.12 -0.32,0.23 -0.49,0.34 c -0.12,0.72 -0.29,1.41 -0.52,2.09 c -0.8,0.23 -1.14,0.73 -1.04,1.51 c 1.04,0.59 2.01,1.26 2.92,2.04 c 0.18,0.67 1.19,1.95 0.29,2.44 c -1.68,-0.76 -2.96,-1.44 -2.84,1.31 c -2.44,-2.88 -1.32,-6.58 -1.4,-10.06 c -0.06,-0.32 -0.12,-0.64 -0.18,-0.95 Z"/></g>
<g><path fill="#45b935" fill-opacity="0.824" d="M 101.36,69.08 c 1.87,-0.58 2.2,1.67 0.26,2.22 c -3.45,-0.6 -6.89,0.86 -10.11,1.99 c -0.77,0.05 -1.53,-0.03 -2.27,-0.23 c 0.25,-0.96 0.68,-1.86 1.27,-2.69 c 0.56,0.44 1.19,0.68 1.89,0.71 c 1.2,-0.38 2.32,-0.93 3.36,-1.65 c 1.36,-0.39 4.82,1.01 5.6,-0.35 Z"/></g>
<g><path fill="#43ab36" fill-opacity="0.91" d="M 60.02,77.18 c 0.04,0.4 0.08,0.79 0.12,1.19 c -1.59,0.51 -4.85,1.66 -5.24,3.51 c -2.61,0.48 -2.55,0.96 0.21,1.44 c 0.84,-0.07 1.66,-0.04 2.47,0.11 c -1.56,0.16 -3.14,0.26 -4.73,0.32 c -0.51,0.32 -1.05,0.4 -1.63,0.23 c -0.36,-0.13 -0.72,-0.26 -1.09,-0.39 c 1.38,-0.17 1.75,-0.84 1.12,-2.02 c 0.25,-0.61 0.55,-1.2 0.89,-1.76 c 0.44,-0.07 0.88,-0.17 1.31,-0.29 c 2.09,-1.46 4.01,-2.36 6.57,-2.34 Z"/></g>
<g><path fill="#29931b" d="M 63.2,78.36 c 1.58,0.27 3.16,0.51 4.74,0.71 c -0.03,0.34 -0.17,0.63 -0.41,0.87 c -1.82,1.15 -3.51,2.41 -5.09,3.79 c -0.86,-0.31 -1.98,-0.17 -2.13,-1.3 c 0.79,-1.47 1.75,-2.83 2.89,-4.07 Z"/></g>
<g><path fill="#3fa731" fill-opacity="0.737" d="M 35.99,84.14 c 0.63,-0.09 0.94,0.17 0.94,0.79 c -0.38,2.2 0.28,2.46 -1.75,4.12 c -0.33,-0.66 -0.88,-1.06 -1.65,-1.18 c -2.32,-0.25 -4.57,-0.81 -6.74,-1.68 c 0.32,-0.02 0.64,-0.03 0.96,-0.05 c 2.21,-0.39 4.44,-0.46 6.68,-0.19 c 0.52,-0.02 0.94,-0.23 1.25,-0.63 c -0.8,-0.53 -1.55,-1.14 -2.23,-1.83 c 0.95,-0.75 1.37,0.86 2.54,0.65 Z"/></g>
<g><path fill="#4abf3b" fill-opacity="0.902" d="M 49.39,23.75 c 3.73,1.1 6.46,3.27 9.82,5.03 c -0.33,0 -0.67,0.01 -1,0.02 c -2.23,0.8 -4.93,-0.6 -6.9,-1.58 c -0.78,-0.67 -1.48,-1.41 -2.1,-2.23 c 0.06,-0.41 0.12,-0.83 0.18,-1.24 Z"/></g>
<g><path fill="#44b835" fill-opacity="0.929" d="M 39.35,44.82 c 1.44,0.95 6.61,5.31 6.62,6.86 c -1.09,0.78 -2.28,1.06 -3.56,0.83 c 0.57,-0.52 0.81,-1.16 0.71,-1.91 c -1.05,-0.66 -2.03,-1.41 -2.94,-2.24 c -0.94,-1.03 -1.21,-2.21 -0.83,-3.54 Z"/></g>
<g><path fill="#32a322" d="M 68.1,68.26 c 0.4,-0.34 0.85,-0.5 1.38,-0.49 c 1.48,0.19 1.35,1.67 2.94,1.38 c 1.72,-1.24 1.59,-1.28 3.26,-0.23 c 0.18,0.4 0.35,0.8 0.53,1.2 c 0.4,0.56 0.59,1.17 0.56,1.85 c -3.15,-0.65 -6.04,-1.89 -8.67,-3.71 Z"/></g>
<g><path fill="#309523" fill-opacity="0.757" d="M 102.98,41.94 c 1.01,0.5 4.25,1.12 4.34,2.28 c -0.44,-0.01 -0.85,0.1 -1.22,0.32 c 0.47,0.2 0.88,0.09 1.22,-0.32 c 1.35,-0.43 2.4,-0.03 3.16,1.19 c -0.34,1.09 -2.01,0.43 -2.82,0.88 c -0.37,0.3 -0.77,0.53 -1.21,0.71 c -0.55,-0.63 -1.26,-0.97 -2.14,-1.02 c 2.56,-2.59 -2.19,-1 -1.33,-4.04 Z"/></g>
<g><path fill="#389c2b" fill-opacity="0.965" d="M 72.81,62.82 c -0.01,0.4 -0.16,0.74 -0.47,1.02 c -1.85,1.24 -3.66,2.51 -5.45,3.78 c -0.72,0.11 -1.44,0.23 -2.16,0.36 c 0.32,-2.3 0.9,-2.54 2.22,-4.18 c 1.93,-0.47 3.88,-0.79 5.86,-0.98 Z"/></g>
<g><path fill="#42b532" fill-opacity="0.902" d="M 59.04,51.14 c 2.33,-0.11 4.63,0.12 6.9,0.66 c 0.14,0.73 0.27,2.85 -0.9,2.81 c -1.52,-0.67 -4.4,-2.58 -6.04,-2.29 c 0.01,-0.39 0.03,-0.79 0.04,-1.18 Z"/></g>
<g><path fill="#368c2b" fill-opacity="0.929" d="M 89.87,90.73 c 0.59,0.03 0.88,0.35 0.89,0.95 c 0.05,0.95 0.55,1.46 1.5,1.53 c -0.14,0.3 -0.27,0.61 -0.41,0.91 c -0.04,0.38 -0.07,0.77 -0.11,1.16 c 0.15,0.53 0.52,0.81 1.09,0.83 c -0.27,0.37 -0.63,0.61 -1.08,0.73 c -0.27,-0.01 -0.53,-0.02 -0.8,-0.03 c -0.48,-0.5 -1.06,-0.87 -1.76,-1.09 c 0.04,-0.13 0.07,-0.26 0.11,-0.39 c 0.7,0.21 1.16,-0.02 1.38,-0.67 c -0.7,-1.82 -2.52,-1.7 -0.81,-3.93 Z"/></g>
<g><path fill="#1e9d0d" fill-opacity="0.761" d="M 93.98,96.16 c 0.78,0.74 3.92,2.44 2.26,3.61 c -1.5,0.21 -2.58,-0.39 -3.23,-1.78 c 0.78,-0.38 1.11,-0.99 0.97,-1.83 Z"/></g>
<g><path fill="#44b834" fill-opacity="0.867" d="M 43.02,71.08 c 1.64,0.47 3.23,1.03 4.78,1.69 c 0.26,0.6 0.6,2.12 -0.44,2.2 c -0.48,-0.43 -1.02,-0.72 -1.65,-0.87 c -0.74,-0.86 -1.57,-1.64 -2.48,-2.33 c -0.07,-0.23 -0.14,-0.46 -0.21,-0.69 Z"/></g>
<g><path fill="#3a952e" fill-opacity="0.851" d="M 13.28,63.27 c 0.94,-0.02 1.54,0.42 1.81,1.32 c -0.55,-0.07 -1.07,0.03 -1.57,0.29 c 0.1,1.4 -0.17,2.76 -0.81,4.07 c -1.1,-0.91 -0.71,-3.55 -0.68,-4.88 c 0.64,0.05 1.06,-0.22 1.25,-0.8 Z"/></g>
<g><path fill="#1d9a0c" fill-opacity="0.686" d="M 12.99,61.78 c -0.49,0.29 -0.87,0.68 -1.15,1.17 c -0.77,-0.36 -1.29,-0.95 -1.57,-1.77 c 0.09,-2.31 2.62,-2.17 2.72,0.6 Z"/></g>
<g><path fill="#63d854" fill-opacity="0.078" d="M 88.94,60.21 c -1.97,-0.32 -3.95,-0.35 -5.93,-0.12 c -0.52,-1.83 7.03,-1.57 5.93,0.12 Z"/></g>
<g><path fill="#5ed64e" fill-opacity="0.769" d="M 66.85,96.3 c 0.5,0.58 0.85,1.23 1.04,1.96 c -0.71,-0.26 -1.4,-0.55 -2.08,-0.88 c 0.16,-0.55 0.51,-0.91 1.04,-1.08 Z"/></g>
<g><path fill="#5ed850" fill-opacity="0.255" d="M 36.16,48.6 c -0.04,0.47 -0.09,0.94 -0.13,1.41 c 0.06,0.31 0.12,0.63 0.18,0.95 c -0.23,0.02 -0.46,0.04 -0.69,0.06 c -0.54,-1.04 -0.33,-1.85 0.64,-2.42 Z"/></g>
<g><path fill="#49b03e" fill-opacity="0.361" d="M 75.95,60.65 c 0.02,0.4 0.04,0.8 0.06,1.2 c -0.75,0.11 -1.51,0.2 -2.26,0.27 c -0.01,-1.07 1.42,-1.23 2.2,-1.47 Z"/></g>
<g><path fill="#60d84c" fill-opacity="0.208" d="M 42.23,70.76 c 0.26,0.11 0.53,0.21 0.79,0.32 c 0.07,0.23 0.14,0.46 0.21,0.69 c -0.62,-0.05 -0.96,-0.38 -1,-1.01 Z"/></g>
<g><path fill="#43a238" fill-opacity="0.443" d="M 57.94,51.24 c 0.37,-0.03 0.73,-0.07 1.1,-0.1 c -0.01,0.39 -0.03,0.79 -0.04,1.18 c -0.46,-0.27 -0.81,-0.63 -1.06,-1.08 Z"/></g>
<g><path fill="#62d54c" fill-opacity="0.408" d="M 106.26,23.92 c -0.3,0.52 -0.73,0.9 -1.27,1.15 c 0.14,-0.69 0.56,-1.08 1.27,-1.15 Z"/></g>
<g><path fill="#61d94e" fill-opacity="0.267" d="M 90.76,91.68 c 0.8,0.22 1.3,0.73 1.5,1.53 c -0.95,-0.07 -1.45,-0.58 -1.5,-1.53 Z"/></g>
<g><path fill="#50ba44" fill-opacity="0.337" d="M 91.85,94.12 c 0.61,0.02 1.02,0.33 1.22,0.91 c -0.44,0.08 -0.88,0.17 -1.33,0.25 c 0.04,-0.39 0.07,-0.78 0.11,-1.16 Z"/></g>
<g><path fill="#60d64d" fill-opacity="0.322" d="M 45.71,74.1 c 0.63,0.15 1.17,0.44 1.65,0.87 c -0.66,-0.09 -1.21,-0.37 -1.65,-0.87 Z"/></g>
<g><path fill="#228714" d="M 109.11,20.34 c -3.04,-1.44 -3.47,1.37 -2.85,3.58 c -0.71,0.07 -1.13,0.46 -1.27,1.15 c -0.58,0.21 -0.77,0.63 -0.59,1.24 c -0.46,-0.05 -0.93,-0.11 -1.4,-0.16 c -1.53,-0.48 -3.04,1.52 -4.72,1.65 c -0.75,0.65 -1.42,1.38 -2,2.19 c -3.33,0.29 -6.64,0.52 -9.94,0.69 c -0.57,-1.22 -0.44,-2.38 0.38,-3.48 c 0.19,-0.32 0.38,-0.65 0.56,-0.98 c 0.34,-0.28 0.69,-0.56 1.06,-0.82 c 0.27,-0.55 0.53,-1.1 0.78,-1.67 c 0.22,-0.3 0.46,-0.6 0.71,-0.88 c 1.92,0.82 3,-1.38 4.09,-2.49 c 1.93,-1.12 3.93,-2.1 6,-2.93 c 2.18,-0.08 4.34,-0.12 6.49,-0.11 c 1.43,0.58 2.9,0.98 4.4,1.19 c -0.72,0.48 -1.29,1.09 -1.7,1.83 Z M 49.29,22.04 c -0.18,0.58 -0.14,1.15 0.1,1.71 c -0.06,0.41 -0.12,0.83 -0.18,1.24 c -0.18,0.66 -0.36,1.32 -0.55,1.98 c -0.42,-0.26 -0.69,-0.64 -0.8,-1.13 c 0.08,-0.62 0.09,-1.24 0.02,-1.86 c -0.03,-1.06 0.44,-1.71 1.41,-1.94 Z M 88.47,28.03 c 0.52,0.67 1.21,1.01 2.04,1.01 c 1.25,-1.91 -0.37,-2.89 -2.04,-1.01 Z M 49.01,28.19 c 0.89,-0.02 1.66,-0.34 2.3,-0.97 c 1.97,0.98 4.67,2.38 6.9,1.58 c -0.1,1.13 0.03,2.23 0.4,3.3 c 1.7,1.9 3.45,3.75 5.25,5.54 c 0.55,2.33 1.29,4.6 2.21,6.81 c 0.73,2.1 -0.67,4.53 1.68,5.88 c -0.52,0.54 -1.13,1.04 -1.81,1.47 c -2.27,-0.54 -4.57,-0.77 -6.9,-0.66 c -0.37,0.03 -0.73,0.07 -1.1,0.1 c 0.49,-2.43 -2.26,-3.57 -3.67,-4.97 c -1.87,-2.57 -5.39,-7.65 -5.35,-10.75 c 0.46,-1.2 0.72,-2.45 0.79,-3.74 c -1.18,-1.07 -2.96,-2.13 -0.7,-3.59 Z M 57.81,35.87 c 0.16,0.69 0.44,1.33 0.83,1.91 c 0.76,-1.01 0.65,-1.92 -0.31,-2.73 c -0.4,0.12 -0.58,0.4 -0.52,0.82 Z M 61.24,41.12 c 0.04,0.77 0.43,1.27 1.17,1.49 c 0.5,-1.22 1.72,-3.77 0.11,-4.62 c -1.35,0.54 -0.46,2.21 -1.28,3.13 Z M 102.09,41.79 c 0.3,0.05 0.59,0.1 0.89,0.15 c -0.86,3.04 3.89,1.45 1.33,4.04 c -0.65,1.9 -1.88,3.26 -3.71,4.08 c -0.93,2.69 -1.67,1.71 -4.03,1.92 c -0.84,0.45 -1.71,0.85 -2.6,1.2 c 0.02,-0.29 0.05,-0.58 0.07,-0.87 c 1.07,-0.51 1.1,-1.14 0.09,-1.88 c -0.94,-0.7 -1.67,-0.56 -2.19,0.42 c -3.2,-1 -3.27,-2.9 -6.72,-0.43 c 0.54,0.43 1.09,0.86 1.63,1.28 c -0.6,0.05 -1.11,0.29 -1.52,0.71 c 0.54,0.44 4.03,2.66 4.07,0.74 c 0.82,0.08 1.51,0.43 2.07,1.07 c -1.9,0.58 -3.83,0.72 -5.79,0.41 c -0.37,0.23 -0.76,0.38 -1.19,0.45 c -2.78,-0.51 -5.58,-0.89 -8.4,-1.14 c -0.8,-0.49 -1.54,-1.05 -2.24,-1.67 c 0.7,-0.12 1.04,-0.54 1.01,-1.26 c 0.53,-0.15 0.99,-0.42 1.38,-0.8 c 1.31,-1.3 2.62,-2.61 3.91,-3.93 c 1.41,-0.69 2.68,-1.58 3.82,-2.67 c 2.87,-0.92 5.77,-1.7 8.71,-2.34 c 1.59,0.1 3.17,0.39 4.72,0.86 c 1.74,1.32 3.35,2.34 4.69,-0.34 Z M 39.35,44.82 c -0.38,1.33 -0.11,2.51 0.83,3.54 c 0.91,0.83 1.89,1.58 2.94,2.24 c 0.1,0.75 -0.14,1.39 -0.71,1.91 c 1.28,0.23 2.47,-0.05 3.56,-0.83 c -0.19,1.58 0.19,3 1.13,4.25 c 0.15,2.55 -1.73,3.61 -2.62,5.72 c 0.19,1.02 0.51,2 0.95,2.94 c 0.38,-0.18 0.78,-0.29 1.19,-0.34 c 0.38,0.37 0.83,0.62 1.35,0.73 c -0.18,0.82 -0.42,1.62 -0.71,2.41 c 0.87,0.68 2.17,-0.07 2.71,1.16 c -0.51,1.06 -0.85,2.18 -1.02,3.35 c 0.02,0.92 -0.41,3.01 0.96,3.18 c -0.32,0.95 -0.97,1.38 -1.93,1.31 c 0.41,-0.85 -0.61,-0.47 -1.03,-0.43 c 0.14,-0.33 0.27,-0.66 0.41,-0.99 c 1.04,-0.08 0.7,-1.6 0.44,-2.2 c -1.55,-0.66 -3.14,-1.22 -4.78,-1.69 c -0.26,-0.11 -0.53,-0.21 -0.79,-0.32 c -0.1,-0.22 -0.2,-0.45 -0.3,-0.67 c -0.02,-0.73 -0.18,-1.42 -0.49,-2.07 c -1.88,-1.99 -3.16,-4.32 -3.83,-7 c -0.12,-2.75 1.16,-2.07 2.84,-1.31 c 0.9,-0.49 -0.11,-1.77 -0.29,-2.44 c -0.91,-0.78 -1.88,-1.45 -2.92,-2.04 c -0.1,-0.78 0.24,-1.28 1.04,-1.51 c 0.23,-0.68 0.4,-1.37 0.52,-2.09 c 0.17,-0.11 0.33,-0.22 0.49,-0.34 c 1.37,-1.58 -0.9,-3.63 -1.7,-1.62 c -0.5,0.21 -1.02,0.32 -1.56,0.34 c 0.04,-0.47 0.09,-0.94 0.13,-1.41 c -0.08,-0.36 -0.06,-0.72 0.04,-1.08 c 0.95,-1.71 1.71,-3.47 2.3,-5.27 c 1.1,0.47 0.79,1.6 0.85,2.57 Z M 107.32,44.22 c -0.34,0.41 -0.75,0.52 -1.22,0.32 c 0.37,-0.22 0.78,-0.33 1.22,-0.32 Z M 91.94,50.85 c 0.46,0.19 0.76,0.53 0.88,1.01 c -0.39,-0.25 -0.69,-0.58 -0.88,-1.01 Z M 49.01,59.61 c 0.49,1.14 0.87,2.31 1.16,3.52 c -0.33,0.01 -0.67,0.02 -1,0.03 c 0,-0.69 -0.29,-1.21 -0.87,-1.56 c -0.14,-0.78 0.1,-1.44 0.71,-1.99 Z M 12.99,61.78 c 0.09,0.5 0.19,1 0.29,1.49 c -0.19,0.58 -0.61,0.85 -1.25,0.8 c -0.06,-0.37 -0.13,-0.75 -0.19,-1.12 c 0.28,-0.49 0.66,-0.88 1.15,-1.17 Z M 49.17,63.16 c 0.06,0.93 -0.34,1.54 -1.2,1.82 c 0.03,-0.88 0.43,-1.49 1.2,-1.82 Z M 15.09,64.59 c 1.88,-0.15 3.66,0.18 5.34,0.99 c 2.33,-0.85 2.08,0.81 3.28,2.29 c 1.28,0.29 2.19,1.02 2.74,2.2 c 1.19,0.48 2.37,1.01 3.53,1.59 c 1.49,3.17 4.25,5.6 4.52,9.27 c 0.95,0.88 1.44,1.95 1.49,3.21 c -1.17,0.21 -1.59,-1.4 -2.54,-0.65 c 0.68,0.69 1.43,1.3 2.23,1.83 c -0.31,0.4 -0.73,0.61 -1.25,0.63 c -2.24,-0.27 -4.47,-0.2 -6.68,0.19 c -0.05,-2.54 -3.14,-2.66 -4.81,-3.67 c -1.49,-1.52 -3.09,-2.9 -4.8,-4.14 c -0.33,-0.91 -0.88,-1.66 -1.63,-2.26 c -1.18,-2 -1.72,-4.16 -1.64,-6.48 c -0.6,-0.58 -1.32,-0.79 -2.16,-0.64 c 0.64,-1.31 0.91,-2.67 0.81,-4.07 c 0.5,-0.26 1.02,-0.36 1.57,-0.29 Z M 23.94,69.93 c -0.1,0.89 -0.04,1.77 0.18,2.63 c 0.32,0.67 0.71,0.72 1.14,0.15 c 0.35,-0.98 0.29,-3.21 -1.32,-2.78 Z"/></g>
<g><path fill="#59cf4b" fill-opacity="0.525" d="M 104.99,25.07 c -0.18,0.42 -0.38,0.83 -0.59,1.24 c -0.18,-0.61 0.01,-1.03 0.59,-1.24 Z M 103,26.15 c 0.47,0.05 0.94,0.11 1.4,0.16 c -0.32,0.36 -0.7,0.64 -1.13,0.84 c -0.09,-0.33 -0.18,-0.67 -0.27,-1 Z"/></g>
<g><path fill="#4ab13c" fill-opacity="0.478" d="M 89.12,23.73 c -0.25,0.57 -0.51,1.12 -0.78,1.67 c -0.18,-0.79 0.08,-1.35 0.78,-1.67 Z M 87.09,24.81 c 0.41,0.2 0.83,0.4 1.25,0.59 c -0.37,0.26 -0.72,0.54 -1.06,0.82 c -0.06,-0.47 -0.13,-0.94 -0.19,-1.41 Z"/></g>
<g><path fill="#1f9d0f" fill-opacity="0.482" d="M 49.29,22.04 c -0.97,0.23 -1.44,0.88 -1.41,1.94 c -0.39,0.01 -0.67,-0.18 -0.82,-0.56 c -0.65,-1.94 1.12,-3.38 2.23,-1.38 Z"/></g>
<g><path fill="#062d00" fill-opacity="0.965" d="M 87.09,24.81 c 0.06,0.47 0.13,0.94 0.19,1.41 c -0.18,0.33 -0.37,0.66 -0.56,0.98 c -1.94,-0.96 -0.32,-3.92 -0.83,-5.62 c -0.93,-1.15 -1.77,-1.07 -2.52,0.25 c -0.82,1.78 -1.57,3.58 -2.25,5.39 c -0.44,-0.09 -0.88,-0.19 -1.32,-0.28 c 0.78,-3.14 1.55,-6.28 2.3,-9.43 c 0.28,-3.34 -0.68,-11.78 5.31,-9.36 c 3.54,2.28 0.89,13.16 -0.32,16.66 Z M 31.99,92.95 c 0.5,0.17 0.65,0.49 0.45,0.96 c -1.05,1.67 -2.19,3.26 -3.44,4.78 c -0.5,1.42 -0.02,2.25 1.44,2.5 c 1.35,-0.75 2.48,-1.73 3.39,-2.97 c 0.62,-0.16 1.23,-0.16 1.85,-0.01 c -3.52,5.15 -18.17,20.51 -24.07,20.57 c -8.55,-3.73 9.05,-12.12 11.24,-15.65 c 3.28,-3.19 6.33,-6.58 9.14,-10.18 Z"/></g>
<g><path fill="#1c7a10" d="M 60.14,78.37 c 1.02,-0.12 2.04,-0.12 3.06,-0.01 c -1.14,1.24 -2.1,2.6 -2.89,4.07 c 0.15,1.13 1.27,0.99 2.13,1.3 c 1.58,-1.38 3.27,-2.64 5.09,-3.79 c 0.24,-0.24 0.38,-0.53 0.41,-0.87 c 0.73,0.09 1.45,0.18 2.17,0.28 c -0.03,0.63 -0.21,1.22 -0.53,1.76 c -1.06,0.9 -2.14,1.76 -3.24,2.57 c -0.55,1.7 3.37,1.41 4.2,1.53 c 1.25,-0.82 2.48,-1.71 3.67,-2.67 c 1.02,-0.31 2.03,-0.63 3.04,-0.97 c 0.05,0.59 -0.04,1.15 -0.26,1.69 c -0.88,0.85 -1.8,1.63 -2.77,2.35 c -0.41,1.53 3.19,1.74 4.15,2.02 c 1.57,-0.68 3.15,-1.36 4.74,-2.05 c 1.24,1.43 2.28,2.98 3.13,4.65 c 1.18,0.54 2.22,0.33 3.13,-0.63 c 0.47,0.25 0.63,0.62 0.5,1.13 c -1.71,2.23 0.11,2.11 0.81,3.93 c -0.22,0.65 -0.68,0.88 -1.38,0.67 c -4.04,-1.57 -3.23,2.46 -5.72,1.69 c -0.93,-1.06 0.77,-2.76 0.11,-4.22 c -1.46,-0.94 -4.38,-3.12 -3.53,0.68 c 0.43,1.78 0.79,3.57 1.09,5.37 c -1.54,0.29 -2.62,-0.31 -3.24,-1.8 c 0.26,-1.88 -0.19,-7.43 -2.6,-7.87 c -4.02,-0.17 2.39,5.16 0,6.84 c -0.81,0.07 -1.43,-0.26 -1.85,-0.97 c -1,-2.54 -2.24,-4.95 -3.72,-7.23 c -1.18,-0.53 -3.43,-1.64 -4.16,0.03 c -0.86,0.05 -1.51,0.45 -1.93,1.19 c -1,-1.74 -2.47,-5.39 -2.91,-0.63 c -1.26,2.56 -2.59,-2.07 -2.96,-2.74 c -0.88,-0.58 -1.84,-0.68 -2.87,-0.31 c -1.01,-0.17 -1.73,-0.71 -2.16,-1.61 c 1.59,-0.06 3.17,-0.16 4.73,-0.32 c -0.81,-0.15 -1.63,-0.18 -2.47,-0.11 c -0.07,-0.48 -0.14,-0.96 -0.21,-1.44 c 0.39,-1.85 3.65,-3 5.24,-3.51 Z M 63.75,89.04 c 0.61,0.24 0.91,0.69 0.9,1.35 c -0.35,-0.42 -0.64,-0.87 -0.9,-1.35 Z M 66.13,89.2 c 0.39,0.05 0.61,0.28 0.68,0.68 c -0.48,0.03 -0.71,-0.2 -0.68,-0.68 Z M 64.89,91.02 c 0.5,0.28 0.79,0.72 0.86,1.3 c -0.4,-0.36 -0.69,-0.79 -0.86,-1.3 Z M 68.14,92.18 c 0.36,0.06 0.57,0.28 0.63,0.64 c -0.35,-0.07 -0.55,-0.28 -0.63,-0.64 Z M 66.19,93.31 c 0.55,-0.05 0.82,0.2 0.82,0.77 c -0.32,-0.2 -0.59,-0.46 -0.82,-0.77 Z M 67.01,94.08 c 0.63,0.56 1.25,0.55 1.85,-0.03 c 0.65,0.46 0.8,1.09 0.46,1.89 c -0.82,0.13 -1.64,0.25 -2.47,0.36 c -0.03,-0.41 -0.07,-0.83 -0.11,-1.24 c 0.09,-0.33 0.18,-0.65 0.27,-0.98 Z M 91.74,95.28 c 0.45,-0.08 0.89,-0.17 1.33,-0.25 c -0.08,0.36 -0.16,0.72 -0.24,1.08 c -0.57,-0.02 -0.94,-0.3 -1.09,-0.83 Z M 92.83,96.11 c 0.38,0.01 0.77,0.03 1.15,0.05 c 0.14,0.84 -0.19,1.45 -0.97,1.83 c -0.34,0.08 -0.67,0.16 -1,0.24 c -0.09,-0.46 -0.17,-0.92 -0.26,-1.39 c 0.45,-0.12 0.81,-0.36 1.08,-0.73 Z"/></g>
<g><path fill="#208313" d="M 73.75,62.12 c 0.75,-0.07 1.51,-0.16 2.26,-0.27 c 0.36,0.48 0.84,0.76 1.43,0.83 c 1.37,-0.28 2.74,-0.62 4.1,-1 c 2.59,0.24 5.18,0.47 7.78,0.68 c 2.52,0.7 4.21,0.71 5.36,3.35 c 2.79,0.4 2.55,-0.34 4.04,2.12 c 0.47,0.18 0.95,0.22 1.44,0.13 c 0.4,0.38 0.79,0.75 1.2,1.12 c -0.78,1.36 -4.24,-0.04 -5.6,0.35 c -1.04,0.72 -2.16,1.27 -3.36,1.65 c -0.7,-0.03 -1.33,-0.27 -1.89,-0.71 c -0.59,0.83 -1.02,1.73 -1.27,2.69 c -2.94,-1.34 -3.01,-1.27 -6.43,-1.06 c 0.14,-0.69 0.08,-1.37 -0.19,-2.03 c -0.49,-2.23 -1.86,-3.17 -4.11,-2.84 c -0.66,-0.06 -1.23,0.14 -1.68,0.6 c -0.43,0.36 -0.81,0.76 -1.15,1.19 c -1.67,-1.05 -1.54,-1.01 -3.26,0.23 c -1.59,0.29 -1.46,-1.19 -2.94,-1.38 c -0.53,-0.01 -0.98,0.15 -1.38,0.49 c -0.4,-0.21 -0.81,-0.43 -1.21,-0.64 c 1.79,-1.27 3.6,-2.54 5.45,-3.78 c 0.31,-0.28 0.46,-0.62 0.47,-1.02 c 0.1,-0.53 0.41,-0.76 0.94,-0.7 Z M 78.17,68.98 c 1.18,0.3 1.51,2.3 2.04,3.23 c -1.16,0.12 -2.31,0.04 -3.44,-0.24 c 0.03,-0.68 -0.16,-1.29 -0.56,-1.85 c 1.02,0.25 1.68,-0.13 1.96,-1.14 Z"/></g>
<g><path fill="#238016" fill-opacity="0.969" d="M 83.7,31.03 c -0.49,-0.71 -1.06,-0.85 -1.74,-0.42 c -0.4,1.18 -1,2.26 -1.8,3.23 c -0.57,2.61 -0.63,4.95 -3.55,6.06 c 1.54,-3.62 2.99,-7.28 4.36,-10.97 c 1.98,-1.82 3.16,0.1 2.73,2.1 Z M 80.84,38.15 c 0.26,0.37 0.56,0.69 0.91,0.96 c 0.16,0.65 -0.31,2.99 1.01,2.57 c 0.24,1.11 -2.12,1.41 -2.72,2.2 c 0.05,-0.63 0.68,-1.36 -0.24,-1.6 c -1.64,1.74 -2.95,3.71 -3.93,5.89 c -1.02,0.72 -1.58,1.72 -1.68,2.99 c -0.11,0.37 -0.23,0.74 -0.34,1.11 c 0.7,0.62 1.44,1.18 2.24,1.67 c -0.81,0.33 -1.6,0.7 -2.37,1.12 c -0.52,0.43 -1.03,0.87 -1.54,1.31 c -0.47,-0.15 -0.95,-0.3 -1.43,-0.45 c 0.13,-0.58 0.06,-1.11 -0.22,-1.61 c -1.78,1.23 -3.37,2.36 -4.69,4.12 c -0.4,0.21 -0.83,0.28 -1.28,0.2 c 3.43,-5.38 6.98,-10.66 10.66,-15.84 c 0.47,0.63 1.09,0.88 1.84,0.74 c 0.53,-1.11 1.34,-1.94 2.42,-2.49 c -0.04,-1.22 0.41,-2.18 1.36,-2.89 Z M 70.75,55.92 c -0.12,0.44 -0.4,0.73 -0.84,0.87 c 0.14,-0.43 0.42,-0.72 0.84,-0.87 Z M 69.91,56.79 c 0.11,0.44 0.22,0.87 0.33,1.3 c -0.8,0.91 -1.45,1.92 -1.96,3.03 c -1.88,0.94 -3.41,2.28 -4.59,4.04 c -0.49,0.37 -1.02,0.67 -1.57,0.92 c 0.37,-1.27 0.94,-2.43 1.7,-3.49 c -0.53,-0.5 -1.17,-0.7 -1.91,-0.62 c 0.62,-0.73 1.23,-1.48 1.82,-2.24 c 0.2,0.97 0.79,1.44 1.78,1.41 c 1.57,-1.34 3.04,-2.79 4.4,-4.35 Z M 64.56,58.63 c 0.07,0.63 -0.21,0.99 -0.83,1.1 c 0.28,-0.37 0.55,-0.73 0.83,-1.1 Z M 61.91,61.97 c -0.01,0.53 -0.26,0.82 -0.77,0.88 c 0.25,-0.29 0.51,-0.58 0.77,-0.88 Z M 60.35,63.74 c 0.24,1.06 0.83,1.84 1.77,2.34 c -0.05,0.93 -0.14,1.86 -0.27,2.78 c -2.39,2.21 -4.63,4.56 -6.73,7.06 c -1.63,-1.62 -0.32,-1.36 0.82,-2.46 c 1.16,-1.51 2.39,-2.96 3.69,-4.36 c 0.88,-0.73 0.56,-2.6 -0.82,-2.15 c -1.58,1.89 -3.34,3.58 -5.28,5.08 c -0.43,0.55 -0.71,1.18 -0.83,1.87 c -0.32,-0.05 -0.64,-0.11 -0.96,-0.16 c 0.43,-0.94 0.91,-1.85 1.44,-2.75 c 2.54,-2.25 4.93,-4.67 7.17,-7.25 Z M 50.94,73.7 c 0.27,0.02 0.53,0.03 0.8,0.04 c 0.15,0.4 0.3,0.8 0.45,1.2 c -0.76,0 -1.52,0.04 -2.28,0.14 c 0.17,-0.59 0.51,-1.05 1.03,-1.38 Z M 52.38,75.87 c 0.72,0.11 1.35,0.41 1.9,0.89 c -0.63,0.73 -2.4,1.95 -2.14,3.05 c -0.34,0.56 -0.64,1.15 -0.89,1.76 c 0.63,1.18 0.26,1.85 -1.12,2.02 c -0.61,0.42 -1.28,0.69 -2.02,0.81 c -0.09,-0.49 -0.06,-0.96 0.08,-1.43 c 1.32,-2.6 3.67,-4.1 4.19,-7.1 Z M 54.9,81.88 c 0.07,0.48 0.14,0.96 0.21,1.44 c -2.76,-0.48 -2.82,-0.96 -0.21,-1.44 Z"/></g>
<g><path fill="#259117" fill-opacity="0.98" d="M 55.12,75.92 c -0.27,0.3 -0.55,0.58 -0.84,0.84 c -0.55,-0.48 -1.18,-0.78 -1.9,-0.89 c -0.06,-0.31 -0.13,-0.62 -0.19,-0.93 c 0.83,0.02 1,-0.33 0.51,-1.04 c 0.12,-0.69 0.4,-1.32 0.83,-1.87 c 1.94,-1.5 3.7,-3.19 5.28,-5.08 c 1.38,-0.45 1.7,1.42 0.82,2.15 c -1.3,1.4 -2.53,2.85 -3.69,4.36 c -1.14,1.1 -2.45,0.84 -0.82,2.46 Z"/></g>
<g><path fill="#38972b" fill-opacity="0.992" d="M 51.74,73.74 c 0.32,0.05 0.64,0.11 0.96,0.16 c 0.49,0.71 0.32,1.06 -0.51,1.04 c -0.15,-0.4 -0.3,-0.8 -0.45,-1.2 Z M 49.91,75.08 c 0.76,-0.1 1.52,-0.14 2.28,-0.14 c 0.06,0.31 0.13,0.62 0.19,0.93 c -0.52,3 -2.87,4.5 -4.19,7.1 c -0.14,0.47 -0.17,0.94 -0.08,1.43 c -1.27,1.3 -2.55,2.59 -3.84,3.87 c -2.39,-0.7 -4,2.94 -5.64,2.78 c -0.46,-0.74 -0.57,-1.53 -0.32,-2.36 c 0.97,-1.14 1.84,-2.36 2.59,-3.65 c 2.41,-2.83 4.77,-5.71 7.08,-8.65 c 0.96,0.07 1.61,-0.36 1.93,-1.31 Z"/></g>
<g><path fill="#2d901f" d="M 61.91,61.97 c 0.74,-0.08 1.38,0.12 1.91,0.62 c -0.76,1.06 -1.33,2.22 -1.7,3.49 c -0.94,-0.5 -1.53,-1.28 -1.77,-2.34 c 0.26,-0.3 0.52,-0.59 0.79,-0.89 c 0.51,-0.06 0.76,-0.35 0.77,-0.88 Z"/></g>
<g><path fill="#309422" d="M 70.75,55.92 c -0.42,0.15 -0.7,0.44 -0.84,0.87 c -1.36,1.56 -2.83,3.01 -4.4,4.35 c -0.99,0.03 -1.58,-0.44 -1.78,-1.41 c 0.62,-0.11 0.9,-0.47 0.83,-1.1 c 0.45,0.08 0.88,0.01 1.28,-0.2 c 1.32,-1.76 2.91,-2.89 4.69,-4.12 c 0.28,0.5 0.35,1.03 0.22,1.61 Z"/></g>
<g><path fill="#4cbf3d" fill-opacity="0.949" d="M 102.09,41.79 c -1.34,2.68 -2.95,1.66 -4.69,0.34 c -1.55,-0.47 -3.13,-0.76 -4.72,-0.86 c -2.94,0.64 -5.84,1.42 -8.71,2.34 c -1.14,1.09 -2.41,1.98 -3.82,2.67 c -0.98,-0.71 -1.01,-1.51 -0.11,-2.4 c 0.6,-0.79 2.96,-1.09 2.72,-2.2 c 1.74,-0.35 3.44,-0.88 5.1,-1.58 c 4.9,-0.73 9.65,-0.16 14.23,1.69 Z"/></g>
<g><path fill="#2b8120" fill-opacity="0.996" d="M 83.7,31.03 c -0.1,0.83 0.1,1.59 0.6,2.27 c -0.44,-0.12 -0.84,-0.04 -1.2,0.24 c -1.33,1.37 -1.59,2.9 -0.75,4.6 c -0.5,0 -1.01,0.01 -1.51,0.01 c -0.95,0.71 -1.4,1.67 -1.36,2.89 c -1.08,0.55 -1.89,1.38 -2.42,2.49 c -0.75,0.14 -1.37,-0.11 -1.84,-0.74 c 0.5,-0.95 0.96,-1.91 1.39,-2.89 c 2.92,-1.11 2.98,-3.45 3.55,-6.06 c 0.8,-0.97 1.4,-2.05 1.8,-3.23 c 0.68,-0.43 1.25,-0.29 1.74,0.42 Z"/></g>
<g><path fill="#124e08" fill-opacity="0.804" d="M 68.28,61.12 c -0.42,0.91 -0.86,1.8 -1.33,2.68 c -1.32,1.64 -1.9,1.88 -2.22,4.18 c -1.02,0.09 -1.98,0.38 -2.88,0.88 c 0.13,-0.92 0.22,-1.85 0.27,-2.78 c 0.55,-0.25 1.08,-0.55 1.57,-0.92 c 1.18,-1.76 2.71,-3.1 4.59,-4.04 Z"/></g>
<g><path fill="#0b3c05" fill-opacity="0.918" d="M 79.8,26.94 c 0.44,0.09 0.88,0.19 1.32,0.28 c -0.08,0.57 -0.13,1.14 -0.15,1.71 c -1.37,3.69 -2.82,7.35 -4.36,10.97 c -0.43,0.98 -0.89,1.94 -1.39,2.89 c -3.68,5.18 -7.23,10.46 -10.66,15.84 c -0.28,0.37 -0.55,0.73 -0.83,1.1 c -0.59,0.76 -1.2,1.51 -1.82,2.24 c -0.26,0.3 -0.52,0.59 -0.77,0.88 c -0.27,0.3 -0.53,0.59 -0.79,0.89 c -2.24,2.58 -4.63,5 -7.17,7.25 c -0.16,-0.55 -0.54,-0.83 -1.12,-0.82 c 0.11,-0.9 0.54,-1.6 1.29,-2.1 c 2.42,-2.33 4.8,-4.69 7.14,-7.1 c 1.37,-2.22 2.89,-4.34 4.55,-6.36 c 1.17,0.04 1.04,-2.08 0.9,-2.81 c 0.68,-0.43 1.29,-0.93 1.81,-1.47 c 0.55,-0.47 1.11,-0.93 1.68,-1.39 c 1.86,-3.71 3.85,-7.37 5.96,-10.97 c 1.29,-3.75 2.76,-7.43 4.41,-11.03 Z M 48.95,71.9 c 0.35,0.02 0.69,0.04 1.03,0.05 c 0.37,0.56 0.69,1.14 0.96,1.75 c -0.52,0.33 -0.86,0.79 -1.03,1.38 c -1.37,-0.17 -0.94,-2.26 -0.96,-3.18 Z"/></g>
<g><path fill="#186c0b" d="M 61.24,41.12 c 0.82,-0.92 -0.07,-2.59 1.28,-3.13 c 1.61,0.85 0.39,3.4 -0.11,4.62 c -0.74,-0.22 -1.13,-0.72 -1.17,-1.49 Z M 86.85,51.7 c 1,0.22 1.85,0.71 2.55,1.45 c -0.04,1.92 -3.53,-0.3 -4.07,-0.74 c 0.41,-0.42 0.92,-0.66 1.52,-0.71 Z M 48.3,61.6 c 0.58,0.35 0.87,0.87 0.87,1.56 c -0.77,0.33 -1.17,0.94 -1.2,1.82 c -0.52,-0.11 -0.97,-0.36 -1.35,-0.73 c 0.23,-1.1 0.79,-1.98 1.68,-2.65 Z"/></g>
<g><path fill="#114d09" fill-opacity="0.992" d="M 52.06,70.17 c 0.58,-0.01 0.96,0.27 1.12,0.82 c -0.53,0.9 -1.01,1.81 -1.44,2.75 c -0.27,-0.01 -0.53,-0.02 -0.8,-0.04 c -0.27,-0.61 -0.59,-1.19 -0.96,-1.75 c 0.78,-0.5 1.47,-1.09 2.08,-1.78 Z"/></g>
<g><path fill="#166f0a" d="M 94.04,52.31 c -0.4,-0.15 -0.81,-0.3 -1.22,-0.45 c -0.12,-0.48 -0.42,-0.82 -0.88,-1.01 c 0.52,-0.98 1.25,-1.12 2.19,-0.42 c 1.01,0.74 0.98,1.37 -0.09,1.88 Z"/></g>
<g><path fill="#155b0c" fill-opacity="0.996" d="M 75.87,48.17 c 0.13,0.68 0.25,1.36 0.37,2.04 c -0.39,0.38 -0.85,0.65 -1.38,0.8 c -0.22,0.05 -0.45,0.1 -0.67,0.15 c 0.1,-1.27 0.66,-2.27 1.68,-2.99 Z"/></g>
<g><path fill="#0b3803" fill-opacity="0.639" d="M 70.75,55.92 c 0.48,0.15 0.96,0.3 1.43,0.45 c -0.29,1 -0.94,1.57 -1.94,1.72 c -0.11,-0.43 -0.22,-0.86 -0.33,-1.3 c 0.44,-0.14 0.72,-0.43 0.84,-0.87 Z"/></g>
<g><path fill="#15680a" d="M 39.29,51.29 c -0.83,-0.25 -1.4,-0.79 -1.7,-1.62 c 0.8,-2.01 3.07,0.04 1.7,1.62 Z M 65.68,87.85 c 0.15,0.45 0.3,0.9 0.45,1.35 c -0.03,0.48 0.2,0.71 0.68,0.68 c 0.61,0.67 1.05,1.44 1.33,2.3 c 0.08,0.36 0.28,0.57 0.63,0.64 c 0.03,0.41 0.06,0.82 0.09,1.23 c -0.6,0.58 -1.22,0.59 -1.85,0.03 c 0,-0.57 -0.27,-0.82 -0.82,-0.77 c -0.14,-0.33 -0.29,-0.66 -0.44,-0.99 c -0.07,-0.58 -0.36,-1.02 -0.86,-1.3 c -0.08,-0.21 -0.16,-0.42 -0.24,-0.63 c 0.01,-0.66 -0.29,-1.11 -0.9,-1.35 c 0.42,-0.74 1.07,-1.14 1.93,-1.19 Z"/></g>
<g><path fill="#185e0e" fill-opacity="0.965" d="M 80.04,43.88 c -0.9,0.89 -0.87,1.69 0.11,2.4 c -1.29,1.32 -2.6,2.63 -3.91,3.93 c -0.12,-0.68 -0.24,-1.36 -0.37,-2.04 c 0.98,-2.18 2.29,-4.15 3.93,-5.89 c 0.92,0.24 0.29,0.97 0.24,1.6 Z M 74.19,51.16 c 0.22,-0.05 0.45,-0.1 0.67,-0.15 c 0.03,0.72 -0.31,1.14 -1.01,1.26 c 0.11,-0.37 0.23,-0.74 0.34,-1.11 Z"/></g>
<g><path fill="#17790a" d="M 88.47,28.03 c 1.67,-1.88 3.29,-0.9 2.04,1.01 c -0.83,0 -1.52,-0.34 -2.04,-1.01 Z M 57.81,35.87 c -0.06,-0.42 0.12,-0.7 0.52,-0.82 c 0.96,0.81 1.07,1.72 0.31,2.73 c -0.39,-0.58 -0.67,-1.22 -0.83,-1.91 Z"/></g>
<g><path fill="#206f16" fill-opacity="0.996" d="M 49.21,24.99 c 0.62,0.82 1.32,1.56 2.1,2.23 c -0.64,0.63 -1.41,0.95 -2.3,0.97 c -0.12,-0.41 -0.23,-0.81 -0.35,-1.22 c 0.19,-0.66 0.37,-1.32 0.55,-1.98 Z"/></g>
<g><path fill="#17740b" d="M 76.83,67.73 c 0.47,0.4 0.91,0.81 1.34,1.25 c -0.28,1.01 -0.94,1.39 -1.96,1.14 c -0.18,-0.4 -0.35,-0.8 -0.53,-1.2 c 0.34,-0.43 0.72,-0.83 1.15,-1.19 Z M 23.94,69.93 c 1.61,-0.43 1.67,1.8 1.32,2.78 c -0.43,0.57 -0.82,0.52 -1.14,-0.15 c -0.22,-0.86 -0.28,-1.74 -0.18,-2.63 Z"/></g>
<g><path fill="#176e0b" fill-opacity="0.976" d="M 36.93,84.93 c 0.41,-0.03 0.82,-0.07 1.23,-0.1 c 0.27,-0.05 0.53,-0.11 0.8,-0.16 c 0.69,-0.11 1.34,0.02 1.94,0.37 c -0.75,1.29 -1.62,2.51 -2.59,3.65 c -0.25,0.83 -0.14,1.62 0.32,2.36 c 1.64,0.16 3.25,-3.48 5.64,-2.78 c -2.74,3.43 -5.61,6.74 -8.59,9.94 c -0.62,-0.15 -1.23,-0.15 -1.85,0.01 c -0.91,1.24 -2.04,2.22 -3.39,2.97 c -1.46,-0.25 -1.94,-1.08 -1.44,-2.5 c 1.25,-1.52 2.39,-3.11 3.44,-4.78 c 0.2,-0.47 0.05,-0.79 -0.45,-0.96 c 0.99,-1.36 2.05,-2.66 3.19,-3.9 c 2.03,-1.66 1.37,-1.92 1.75,-4.12 Z"/></g>
<g><path fill="#114b09" fill-opacity="0.816" d="M 46.95,75.96 c 0.42,-0.04 1.44,-0.42 1.03,0.43 c -2.31,2.94 -4.67,5.82 -7.08,8.65 c -0.6,-0.35 -1.25,-0.48 -1.94,-0.37 c -0.02,-0.33 0.1,-0.61 0.35,-0.84 c 2.79,-2.39 5.33,-5.01 7.64,-7.87 Z"/></g>
<g><path fill="#1a5713" fill-opacity="0.976" d="M 86.72,27.2 c -0.82,1.1 -0.95,2.26 -0.38,3.48 c -0.51,0.77 -0.91,1.6 -1.17,2.49 c -0.29,0.04 -0.58,0.09 -0.87,0.13 c -0.5,-0.68 -0.7,-1.44 -0.6,-2.27 c 0.43,-2 -0.75,-3.92 -2.73,-2.1 c 0.02,-0.57 0.07,-1.14 0.15,-1.71 c 0.68,-1.81 1.43,-3.61 2.25,-5.39 c 0.75,-1.32 1.59,-1.4 2.52,-0.25 c 0.51,1.7 -1.11,4.66 0.83,5.62 Z M 84.3,33.3 c -0.55,1.65 -1.2,3.27 -1.95,4.84 c -0.84,-1.7 -0.58,-3.23 0.75,-4.6 c 0.36,-0.28 0.76,-0.36 1.2,-0.24 Z M 80.84,38.15 c 0.5,0 1.01,-0.01 1.51,-0.01 c -0.2,0.32 -0.4,0.64 -0.6,0.97 c -0.35,-0.27 -0.65,-0.59 -0.91,-0.96 Z"/></g>
</svg>
