<svg version="1.1" id="Layer_1" xmlns="http://www.w3.org/2000/svg" xmlns:xlink="http://www.w3.org/1999/xlink" x="0px" y="0px"
	 width="100%" viewBox="0 0 100 100" enable-background="new 0 0 100 100" xml:space="preserve">
<path fill="#000000" opacity="1.000000" stroke="none" 
	d="
M62.000000,101.000000 
	C41.333336,101.000000 21.166674,101.000000 1.000008,101.000000 
	C1.000005,67.666679 1.000005,34.333351 1.000003,1.000021 
	C34.333317,1.000014 67.666634,1.000014 100.999969,1.000007 
	C100.999977,34.333313 100.999977,67.666626 100.999985,100.999969 
	C88.166664,101.000000 75.333336,101.000000 62.000000,101.000000 
M44.020485,28.985226 
	C44.020485,28.985226 43.966785,28.895376 43.245304,29.073870 
	C41.742085,29.681532 39.680862,29.863590 38.834972,30.972618 
	C35.653183,35.144207 32.867416,39.617851 29.498442,44.208611 
	C29.253448,44.622761 29.008455,45.036911 28.296808,45.916073 
	C27.850401,46.898087 27.403996,47.880100 26.338888,49.196304 
	C24.903725,52.118347 23.468561,55.040394 21.576191,58.234135 
	C21.452011,58.554676 21.327833,58.875221 20.808981,59.739620 
	C19.922390,61.466927 19.035797,63.194233 18.010448,65.589951 
	C17.730368,66.641304 17.450287,67.692665 17.041531,69.338051 
	C17.023045,69.539810 17.004559,69.741577 16.354357,70.367897 
	C15.158161,75.029793 13.961967,79.691681 12.648714,84.809776 
	C18.644699,85.309464 16.909037,80.336998 19.356703,77.678398 
	C24.587706,78.668976 30.301792,79.751038 36.683765,81.188599 
	C38.126225,81.404495 39.568687,81.620399 41.751572,82.260170 
	C46.947376,82.490379 52.148605,82.915581 57.333981,82.771248 
	C58.268642,82.745232 59.138081,80.376068 60.938614,79.031975 
	C65.538231,78.676308 70.163826,78.500450 74.719742,77.842285 
	C75.902466,77.671425 77.581390,76.081711 77.718948,74.979752 
	C77.841240,74.000107 76.352768,72.221519 75.207130,71.802826 
	C72.621658,70.857918 69.808571,70.535797 67.026031,69.275574 
	C66.395432,68.170067 65.764824,67.064568 65.585960,65.342575 
	C67.842880,64.900314 70.140305,64.599327 72.342941,63.967766 
	C73.897842,63.521927 75.324196,62.627792 76.807938,61.933800 
	C75.634010,60.329746 74.609375,58.577621 73.225212,57.182087 
	C72.498001,56.448887 71.141548,56.339783 70.029556,55.312393 
	C70.055199,54.888721 70.080841,54.465050 71.012802,54.040771 
	C73.825279,54.031101 76.662048,54.232830 79.438942,53.913605 
	C80.645355,53.774925 82.638947,52.595421 82.664452,51.834644 
	C82.707809,50.541637 81.655350,49.053581 80.712280,47.946609 
	C80.167587,47.307255 78.935143,47.253819 78.087746,46.098156 
	C81.979721,45.353470 85.871689,44.608784 89.137383,43.983932 
	C88.329369,35.081184 82.336510,31.024986 75.968086,27.566551 
	C71.925171,25.371004 67.467262,23.939631 62.485386,21.870674 
	C66.583443,20.427439 69.961151,19.355927 73.234169,18.026634 
	C74.528221,17.501072 75.589310,16.401884 76.756470,15.563883 
	C75.305504,15.055435 73.477470,13.712151 72.463089,14.170313 
	C64.177238,17.912746 56.043213,21.991358 47.193951,26.001045 
	C46.423210,26.314611 45.652473,26.628178 44.353912,27.258514 
	C44.212917,27.852146 44.071922,28.445780 44.020485,28.985226 
z"/>
<path fill="#19AD32" opacity="1.000000" stroke="none" 
	d="
M22.033400,57.962437 
	C23.468561,55.040394 24.903725,52.118347 26.826553,49.344738 
	C31.534201,53.228844 33.976822,52.797424 36.358208,47.973122 
	C42.352402,49.044937 47.916225,50.115456 53.480049,51.185974 
	C53.625580,50.808842 53.771114,50.431709 53.916649,50.054581 
	C52.284767,49.240917 50.733715,48.056553 49.006535,47.679962 
	C42.680504,46.300636 36.295868,45.190102 29.933300,43.978355 
	C32.867416,39.617851 35.653183,35.144207 38.834972,30.972618 
	C39.680862,29.863590 41.742085,29.681532 43.675385,29.325808 
	C44.695946,32.460190 46.500027,32.851803 48.910629,31.870916 
	C51.039566,31.004639 53.142784,30.075161 55.327370,29.518963 
	C60.975056,34.003052 67.291771,31.686499 73.219238,32.769955 
	C73.316917,32.031830 73.414597,31.293703 73.512283,30.555578 
	C67.993919,30.026173 62.475563,29.496769 57.085503,28.726551 
	C58.435936,25.808331 56.852512,25.225386 54.710907,25.320461 
	C52.423214,25.422020 50.145245,25.742723 47.863033,25.967766 
	C56.043213,21.991358 64.177238,17.912746 72.463089,14.170313 
	C73.477470,13.712151 75.305504,15.055435 76.756470,15.563883 
	C75.589310,16.401884 74.528221,17.501072 73.234169,18.026634 
	C69.961151,19.355927 66.583443,20.427439 62.485386,21.870674 
	C67.467262,23.939631 71.925171,25.371004 75.968086,27.566551 
	C82.336510,31.024986 88.329369,35.081184 89.137383,43.983932 
	C85.871689,44.608784 81.979721,45.353470 77.587784,46.526333 
	C69.833588,46.954510 62.579353,46.954510 54.771935,46.954510 
	C60.203739,49.464821 65.155106,51.753101 70.106476,54.041378 
	C70.080841,54.465050 70.055199,54.888721 69.586113,55.647644 
	C66.031700,56.097542 62.920723,56.212185 59.381302,56.291336 
	C52.319920,55.486137 45.686985,54.716423 39.054054,53.946712 
	C38.970184,54.581264 38.886311,55.215816 38.802437,55.850372 
	C42.121685,56.637596 45.440933,57.424820 49.001282,58.457752 
	C54.539658,61.121994 59.836941,63.540527 65.134224,65.959061 
	C65.764824,67.064568 66.395432,68.170067 66.601562,69.628052 
	C62.384686,69.780914 58.592274,69.581299 54.458717,69.356079 
	C53.431938,69.280769 52.746307,69.231056 51.781261,69.148819 
	C51.314754,69.103500 51.127659,69.090714 50.542736,69.004257 
	C46.531239,68.394737 42.917564,67.858902 39.303894,67.323059 
	C39.208038,67.722923 39.112186,68.122787 39.016331,68.522652 
	C43.682842,70.279060 48.349358,72.035469 53.238754,74.045784 
	C55.653637,75.896027 57.845638,77.492363 60.037636,79.088707 
	C59.138081,80.376068 58.268642,82.745232 57.333981,82.771248 
	C52.148605,82.915581 46.947376,82.490379 41.752819,81.935715 
	C44.999119,81.330185 48.244167,81.049110 51.489220,80.768036 
	C51.501949,80.388290 51.514679,80.008545 51.527409,79.628799 
	C48.646782,78.453354 45.766151,77.277908 42.742477,75.783379 
	C41.092045,74.556221 39.681717,73.377808 38.057652,72.794731 
	C34.347977,71.462875 30.533703,70.422363 26.876995,68.929810 
	C26.305069,67.191956 25.837374,64.796066 24.886366,64.585762 
	C22.768938,64.117523 20.409821,64.742241 18.149204,64.921539 
	C19.035797,63.194233 19.922390,61.466927 21.314053,59.652447 
	C30.645529,61.545273 39.471931,63.525272 48.298336,65.505272 
	C48.413357,65.026947 48.528378,64.548630 48.643398,64.070305 
	C40.396214,59.615692 31.172884,58.951870 22.033400,57.962437 
M57.990345,41.869591 
	C58.841160,41.650871 59.691975,41.432148 60.542789,41.213425 
	C60.565918,40.706921 60.589050,40.200417 60.612179,39.693913 
	C53.602676,38.488075 46.593170,37.282234 39.583668,36.076397 
	C39.438393,36.817177 39.293121,37.557961 39.147850,38.298740 
	C45.186554,39.468727 51.225254,40.638714 57.990345,41.869591 
M35.519711,53.526142 
	C35.519711,53.526142 35.503757,53.486420 35.519711,53.526142 
z"/>
<path fill="#088F1E" opacity="1.000000" stroke="none" 
	d="
M54.799866,69.381683 
	C58.592274,69.581299 62.384686,69.780914 66.632591,69.970413 
	C69.808571,70.535797 72.621658,70.857918 75.207130,71.802826 
	C76.352768,72.221519 77.841240,74.000107 77.718948,74.979752 
	C77.581390,76.081711 75.902466,77.671425 74.719742,77.842285 
	C70.163826,78.500450 65.538231,78.676308 60.488129,79.060341 
	C57.845638,77.492363 55.653637,75.896027 53.549801,74.011902 
	C56.194466,73.971550 58.750961,74.218979 61.307461,74.466408 
	C61.335308,74.132240 61.363155,73.798065 61.391003,73.463898 
	C59.193958,72.103157 56.996914,70.742416 54.799866,69.381683 
z"/>
<path fill="#1BB034" opacity="1.000000" stroke="none" 
	d="
M36.015881,80.833092 
	C30.301792,79.751038 24.587706,78.668976 19.356703,77.678398 
	C16.909037,80.336998 18.644699,85.309464 12.648714,84.809776 
	C13.961967,79.691681 15.158161,75.029793 16.950489,70.402847 
	C24.449442,72.268417 31.352262,74.099037 37.940140,76.015862 
	C34.489235,76.794815 33.181023,78.109291 36.015881,80.833092 
z"/>
<path fill="#0C8321" opacity="1.000000" stroke="none" 
	d="
M70.559639,54.041077 
	C65.155106,51.753101 60.203739,49.464821 54.771935,46.954510 
	C62.579353,46.954510 69.833588,46.954510 77.550034,46.945587 
	C78.935143,47.253819 80.167587,47.307255 80.712280,47.946609 
	C81.655350,49.053581 82.707809,50.541637 82.664452,51.834644 
	C82.638947,52.595421 80.645355,53.774925 79.438942,53.913605 
	C76.662048,54.232830 73.825279,54.031101 70.559639,54.041077 
z"/>
<path fill="#0A9121" opacity="1.000000" stroke="none" 
	d="
M59.809750,56.326824 
	C62.920723,56.212185 66.031700,56.097542 69.605957,55.965881 
	C71.141548,56.339783 72.498001,56.448887 73.225212,57.182087 
	C74.609375,58.577621 75.634010,60.329746 76.807938,61.933800 
	C75.324196,62.627792 73.897842,63.521927 72.342941,63.967766 
	C70.140305,64.599327 67.842880,64.900314 65.360092,65.650818 
	C59.836941,63.540527 54.539658,61.121994 49.423248,58.465916 
	C54.234779,59.008163 58.865437,59.787960 63.496098,60.567753 
	C63.591084,60.073433 63.686073,59.579113 63.781059,59.084793 
	C62.457291,58.165470 61.133518,57.246147 59.809750,56.326824 
z"/>
<path fill="#37B32B" opacity="1.000000" stroke="none" 
	d="
M36.349823,81.010849 
	C33.181023,78.109291 34.489235,76.794815 38.244324,76.053894 
	C39.270676,76.077179 39.677902,76.148643 40.169666,76.254967 
	C40.427937,76.345703 40.606049,76.374763 41.140938,76.349396 
	C41.957401,76.248665 42.421463,76.175568 42.885525,76.102463 
	C45.766151,77.277908 48.646782,78.453354 51.527409,79.628799 
	C51.514679,80.008545 51.501949,80.388290 51.489220,80.768036 
	C48.244167,81.049110 44.999119,81.330185 41.382607,81.723778 
	C39.568687,81.620399 38.126225,81.404495 36.349823,81.010849 
z"/>
<path fill="#12712E" opacity="1.000000" stroke="none" 
	d="
M29.715870,44.093483 
	C36.295868,45.190102 42.680504,46.300636 49.006535,47.679962 
	C50.733715,48.056553 52.284767,49.240917 53.916649,50.054581 
	C53.771114,50.431709 53.625580,50.808842 53.480049,51.185974 
	C47.916225,50.115456 42.352402,49.044937 35.995083,47.873459 
	C33.055546,46.998684 30.909504,46.224873 28.763462,45.451061 
	C29.008455,45.036911 29.253448,44.622761 29.715870,44.093483 
z"/>
<path fill="#126F2E" opacity="1.000000" stroke="none" 
	d="
M21.804794,58.098286 
	C31.172884,58.951870 40.396214,59.615692 48.643398,64.070305 
	C48.528378,64.548630 48.413357,65.026947 48.298336,65.505272 
	C39.471931,63.525272 30.645529,61.545273 21.511391,59.380516 
	C21.327833,58.875221 21.452011,58.554676 21.804794,58.098286 
z"/>
<path fill="#126F2E" opacity="1.000000" stroke="none" 
	d="
M42.742477,75.783386 
	C42.421463,76.175568 41.957401,76.248665 40.968094,76.300339 
	C40.442856,76.278923 40.085133,76.220108 40.085133,76.220108 
	C39.677902,76.148643 39.270676,76.077179 38.559265,75.967690 
	C31.352262,74.099037 24.449442,72.268417 17.266350,70.190567 
	C17.004559,69.741577 17.023045,69.539810 17.547127,69.061646 
	C20.955790,68.944672 23.858852,69.104088 26.761917,69.263504 
	C30.533703,70.422363 34.347977,71.462875 38.057652,72.794731 
	C39.681717,73.377808 41.092045,74.556221 42.742477,75.783386 
z"/>
<path fill="#38B32B" opacity="1.000000" stroke="none" 
	d="
M47.528492,25.984406 
	C50.145245,25.742723 52.423214,25.422020 54.710907,25.320461 
	C56.852512,25.225386 58.435936,25.808331 56.802834,28.766891 
	C56.013699,29.089891 55.635529,29.131739 55.257359,29.173586 
	C53.142784,30.075161 51.039566,31.004639 48.910629,31.870916 
	C46.500027,32.851803 44.695946,32.460190 44.036125,29.236561 
	C43.966785,28.895376 44.020485,28.985226 44.125023,28.764236 
	C44.446957,28.009413 44.664345,27.475578 44.881733,26.941744 
	C45.652473,26.628178 46.423210,26.314611 47.528492,25.984406 
z"/>
<path fill="#32B02C" opacity="1.000000" stroke="none" 
	d="
M26.876995,68.929810 
	C23.858852,69.104088 20.955790,68.944672 17.611465,68.764633 
	C17.450287,67.692665 17.730368,66.641304 18.079826,65.255745 
	C20.409821,64.742241 22.768938,64.117523 24.886366,64.585762 
	C25.837374,64.796066 26.305069,67.191956 26.876995,68.929810 
z"/>
<path fill="#31B02C" opacity="1.000000" stroke="none" 
	d="
M28.530136,45.683567 
	C30.909504,46.224873 33.055546,46.998684 35.564713,47.872154 
	C33.976822,52.797424 31.534201,53.228844 27.135904,49.177643 
	C27.403996,47.880100 27.850401,46.898087 28.530136,45.683567 
z"/>
<path fill="#19AD32" opacity="1.000000" stroke="none" 
	d="
M44.617821,27.100128 
	C44.664345,27.475578 44.446957,28.009413 44.080246,28.791328 
	C44.071922,28.445780 44.212917,27.852146 44.617821,27.100128 
z"/>
<path fill="#116F21" opacity="1.000000" stroke="none" 
	d="
M59.381302,56.291336 
	C61.133518,57.246147 62.457291,58.165470 63.781059,59.084793 
	C63.686073,59.579113 63.591084,60.073433 63.496098,60.567753 
	C58.865437,59.787960 54.234779,59.008163 49.182152,58.220207 
	C45.440933,57.424820 42.121685,56.637596 38.802437,55.850372 
	C38.886311,55.215816 38.970184,54.581264 39.054054,53.946712 
	C45.686985,54.716423 52.319920,55.486137 59.381302,56.291336 
z"/>
<path fill="#106F20" opacity="1.000000" stroke="none" 
	d="
M54.458717,69.356079 
	C56.996914,70.742416 59.193958,72.103157 61.391003,73.463898 
	C61.363155,73.798065 61.335308,74.132240 61.307461,74.466408 
	C58.750961,74.218979 56.194466,73.971550 53.326920,73.757996 
	C48.349358,72.035469 43.682842,70.279060 39.016331,68.522652 
	C39.112186,68.122787 39.208038,67.722923 39.303894,67.323059 
	C42.917564,67.858902 46.531239,68.394737 50.678101,69.053726 
	C51.211292,69.176880 51.635571,69.231827 51.635571,69.231827 
	C51.635571,69.231827 52.060673,69.181343 52.060673,69.181343 
	C52.746307,69.231056 53.431938,69.280769 54.458717,69.356079 
z"/>
<path fill="#13702F" opacity="1.000000" stroke="none" 
	d="
M57.627151,41.839142 
	C51.225254,40.638714 45.186554,39.468727 39.147850,38.298740 
	C39.293121,37.557961 39.438393,36.817177 39.583668,36.076397 
	C46.593170,37.282234 53.602676,38.488075 60.612179,39.693913 
	C60.589050,40.200417 60.565918,40.706921 60.542789,41.213425 
	C59.691975,41.432148 58.841160,41.650871 57.627151,41.839142 
z"/>
<path fill="#13732F" opacity="1.000000" stroke="none" 
	d="
M55.327370,29.518963 
	C55.635529,29.131739 56.013699,29.089891 56.674538,29.007706 
	C62.475563,29.496769 67.993919,30.026173 73.512283,30.555578 
	C73.414597,31.293703 73.316917,32.031830 73.219238,32.769955 
	C67.291771,31.686499 60.975056,34.003052 55.327370,29.518963 
z"/>
<path fill="#116F21" opacity="1.000000" stroke="none" 
	d="
M35.511734,53.506279 
	C35.503757,53.486420 35.519711,53.526142 35.511734,53.506279 
z"/>
<path fill="#088F1E" opacity="1.000000" stroke="none" 
	d="
M51.781261,69.148819 
	C52.060673,69.181343 51.635571,69.231827 51.635571,69.231827 
	C51.635571,69.231827 51.211292,69.176880 51.075928,69.127403 
	C51.127659,69.090714 51.314754,69.103500 51.781261,69.148819 
z"/>
<path fill="#19AD32" opacity="1.000000" stroke="none" 
	d="
M40.169666,76.254967 
	C40.085133,76.220108 40.442856,76.278923 40.615696,76.327972 
	C40.606049,76.374763 40.427937,76.345703 40.169666,76.254967 
z"/>
</svg>