<?xml version="1.0" encoding="UTF-8"?>
<svg version="1.1" xmlns="http://www.w3.org/2000/svg" width="50" height="50" viewBox="0 0 1012 1012">
<path d="M0 0 C1.25891544 -0.00327219 2.51783088 -0.00654439 3.81489527 -0.00991574 C5.20700913 -0.00850579 6.5991229 -0.00700379 7.99123657 -0.00541991 C9.48002646 -0.00737361 10.96881584 -0.00976275 12.45760441 -0.01254788 C16.56339804 -0.01894866 20.66917211 -0.01910944 24.77496978 -0.01827047 C29.23632564 -0.01843995 33.69767449 -0.02434589 38.15902686 -0.02951133 C47.01414985 -0.03884091 55.86926783 -0.04275998 64.72439511 -0.0450303 C75.32833101 -0.0479914 85.93226026 -0.05668821 96.53619266 -0.06544458 C122.16628699 -0.08629268 147.79638247 -0.09675895 173.42648329 -0.10557419 C185.54837012 -0.10977976 197.67025645 -0.11500183 209.79214285 -0.12025872 C251.27731935 -0.13814829 292.76249599 -0.15314527 334.24767578 -0.16057891 C336.85228177 -0.16105367 339.45688776 -0.16152955 342.06149375 -0.16200657 C343.99898671 -0.16236113 343.99898671 -0.16236113 345.97562094 -0.16272286 C352.51992871 -0.16392407 359.06423647 -0.16513952 365.60854423 -0.16636485 C366.90728579 -0.166605 368.20602735 -0.16684515 369.54412471 -0.16709258 C411.66523856 -0.17498788 453.78632426 -0.19842481 495.90742582 -0.23092079 C540.42861678 -0.26520579 584.94979128 -0.28492876 629.47099566 -0.28822315 C634.35676905 -0.2886407 639.24254243 -0.28912026 644.12831581 -0.28964633 C645.3313518 -0.28976952 646.53438779 -0.28989271 647.77387941 -0.29001964 C667.14705728 -0.29235319 686.5202025 -0.30802167 705.89336873 -0.32848817 C725.3598195 -0.34872726 744.826231 -0.35423253 764.29269035 -0.34471754 C775.86130375 -0.33949531 787.42978651 -0.34541419 798.99838115 -0.36725221 C806.72479426 -0.3807367 814.45111722 -0.37970411 822.17753119 -0.36685025 C826.58063205 -0.35993805 830.98348276 -0.35933716 835.38656153 -0.37641034 C839.39589264 -0.39183009 843.40477287 -0.38867654 847.41409075 -0.37100006 C848.8519311 -0.36786224 850.28980608 -0.37136 851.72760676 -0.38249181 C865.48125826 -0.48199989 875.95517722 2.38147161 886.68373954 11.12880117 C887.32053642 11.62895742 887.95733329 12.12911367 888.61342704 12.64442617 C897.14299846 20.15044901 902.17206312 32.60796997 902.92983329 43.74598867 C903.5039503 57.65870171 899.81116903 69.66164338 890.71828355 80.46369989 C888.44980041 82.86760897 886.12971385 85.20503902 883.77756774 87.52716428 C882.44265399 88.8690011 882.44265399 88.8690011 881.08077228 90.23794574 C878.62171646 92.70919542 876.1504561 95.167907 873.67693705 97.62466843 C870.98392122 100.30388026 868.30260492 102.99475969 865.61976314 105.68415231 C860.92010913 110.39208304 856.21310465 115.09256188 851.50116622 119.78819638 C844.49476895 126.770418 837.49990923 133.76411346 830.50734518 140.76018539 C818.74348837 152.52929381 806.97035499 164.28908068 795.19189155 176.04356939 C783.53108674 187.68069978 771.87443318 199.32196269 760.22328651 210.96876317 C759.49863958 211.69313514 758.77399265 212.41750711 758.02738673 213.16382975 C754.34723824 216.84262489 750.66716366 220.52149394 746.98711751 224.20039146 C720.92653903 250.25257005 694.85670044 276.29546408 668.78139579 302.33290273 C643.45085096 327.62670553 618.12451431 352.92470983 592.80385673 378.22841054 C592.02325465 379.00848652 591.24265256 379.7885625 590.43839587 380.59227715 C582.59921763 388.42618127 574.7601248 396.26017085 566.92109454 404.09422304 C550.9523242 420.05284873 534.9829839 436.01090403 519.01329887 451.9686144 C518.2790519 452.70231221 517.54480493 453.43601001 516.78830806 454.19194109 C494.28443087 476.67892714 471.77813922 499.16349458 449.26946342 521.64567739 C448.63046346 522.28392712 447.99146349 522.92217685 447.33309989 523.57976749 C421.45146988 549.43093738 395.56728337 575.27954752 369.68373954 601.12880117 C440.46873954 601.62380117 440.46873954 601.62380117 512.68373954 602.12880117 C512.68373954 580.67880117 512.68373954 559.22880117 512.68373954 537.12880117 C534.13373954 537.12880117 555.58373954 537.12880117 577.68373954 537.12880117 C577.76395716 557.61103313 577.76395716 557.61103313 577.78139579 566.40223867 C577.79330976 572.37981426 577.80734063 578.35732805 577.83461845 584.33485585 C577.85649247 589.15890598 577.86833862 593.98288975 577.87349403 598.80698568 C577.87716382 600.63919538 577.88432931 602.47140183 577.89519966 604.30358297 C577.99832123 622.41986332 576.95597404 639.55540047 563.68373954 653.39051992 C553.57870531 662.17321569 540.94929923 667.78019887 527.41627681 666.9741686 C525.85507175 666.8505874 524.29449482 666.7188889 522.73453605 666.58046132 C520.93042579 666.43672354 519.12628602 666.29335592 517.3221215 666.1503008 C516.36582155 666.07174918 515.40952159 665.99319757 514.42424285 665.9122656 C491.93519169 664.08254066 469.44003582 662.97556561 446.89328945 662.16180593 C432.80552555 661.63712028 418.78755896 660.92362463 404.75719059 659.507572 C367.41975972 655.97867687 341.49208242 661.38523011 302.68373954 668.12880117 C268.03373954 702.77880117 233.38373954 737.42880117 197.68373954 773.12880117 C359.05373954 773.45880117 520.42373954 773.78880117 686.68373954 774.12880117 C686.60450483 649.25037463 686.60450483 649.25037463 686.50356376 524.37196523 C686.49453056 500.26893789 686.49453056 500.26893789 686.49285209 489.00032216 C686.49098198 481.0971526 686.48362442 473.1940111 686.47258842 465.29084951 C686.45989084 456.18438655 686.45405988 447.07795063 686.45684964 437.97147875 C686.45805865 433.30945775 686.45609263 428.64749728 686.44530928 423.98548728 C686.43562821 419.77460433 686.43505899 415.56382509 686.44193733 411.35293752 C686.44278952 409.82615357 686.44021782 408.29936331 686.43397439 406.77259189 C686.42599371 404.70013116 686.4302461 402.62804778 686.43764389 400.55559331 C686.43688444 399.40276239 686.436125 398.24993147 686.43534255 397.06216627 C686.67976024 394.17579348 687.07679015 392.51609769 688.68373954 390.12880117 C690.77748954 389.18739492 690.77748954 389.18739492 693.18373954 388.56630117 C697.16701024 387.55329987 697.16701024 387.55329987 699.68373954 384.12880117 C701.32516917 383.08789457 702.99086169 382.0837579 704.68373954 381.12880117 C705.01373954 380.79880117 705.34373954 380.46880117 705.68373954 380.12880117 C707.68373954 380.12880117 709.68373954 380.12880117 711.68373954 380.12880117 C712.34373954 379.79880117 713.00373954 379.46880117 713.68373954 379.12880117 C716.4553458 379.04196672 719.20148719 379.01324327 721.97280204 379.03114492 C723.20043769 379.03326734 723.20043769 379.03326734 724.45287406 379.03543264 C727.07153279 379.04103827 729.69010658 379.05359168 732.30873954 379.06630117 C734.08217581 379.07131544 735.85561341 379.07587848 737.62905204 379.07997304 C741.98064736 379.09100953 746.33217904 379.10827792 750.68373954 379.12880117 C750.77533038 430.73987194 750.84579622 482.35093448 750.88800086 533.96207056 C750.89300358 540.05768663 750.89818088 546.15330253 750.90346611 552.24891835 C750.90503997 554.06918015 750.90503997 554.06918015 750.90664563 555.92621492 C750.92404244 575.56532255 750.95557618 595.20438326 750.99235073 614.84346308 C751.02978022 635.00068895 751.05197965 655.15789029 751.06009352 675.31514949 C751.06557711 687.74942917 751.08288562 700.18357622 751.11540541 712.61781506 C751.13657806 721.14885369 751.14293334 729.67982393 751.13774505 738.21088691 C751.13518758 743.1300595 751.13905914 748.0490006 751.16056144 752.96813184 C751.18013475 757.47908429 751.18094014 761.98965122 751.16733512 766.50062202 C751.16565552 768.12536345 751.17063801 769.75012969 751.18327227 771.37482287 C751.31778743 789.75380638 746.89108925 805.2699664 733.95327079 818.85145742 C733.20432548 819.60298085 732.45538017 820.35450429 731.68373954 821.12880117 C731.06885673 821.7668871 730.45397392 822.40497304 729.82045829 823.06239492 C724.10294879 828.55952932 717.02285711 832.23363227 709.68373954 835.12880117 C709.02207328 835.40002673 708.36040701 835.6712523 707.67869025 835.95069683 C697.59208078 839.36775558 687.03395255 838.19253902 676.56217277 837.80078298 C674.2909412 837.7288323 672.01965376 837.65862741 669.74831897 837.59001243 C664.81660078 837.43860612 659.88530418 837.27795908 654.95411193 837.11030179 C641.95245987 836.67042961 628.94887563 836.29316301 615.94531604 835.91473394 C613.74360859 835.8504884 611.54191904 835.78565541 609.34023179 835.72072189 C586.2495779 835.04162128 563.15872682 834.52429339 540.06165397 834.12185842 C539.27806198 834.10813462 538.49446999 834.09441082 537.68713279 834.08027115 C521.48128172 833.79679556 505.27516643 833.53153249 489.06871229 833.28498249 C479.89171753 833.14518813 470.71482176 832.99970726 461.53798759 832.84974843 C460.70764551 832.83627264 459.87730343 832.82279684 459.02179947 832.80891269 C432.33690586 832.37337711 405.67602806 831.59388883 379.005451 830.6295819 C351.44323961 829.63500201 323.89522586 829.01781238 296.31517745 828.83599437 C292.37320631 828.80982165 288.4312769 828.77952959 284.48935592 828.74669248 C283.71400279 828.74035444 282.93864965 828.73401641 282.13980097 828.72748631 C270.66524466 828.62393894 259.23127642 828.20953931 247.77245605 827.6164549 C230.4435938 826.7367384 213.16699534 826.3576833 195.81874931 826.82386953 C195.13242377 826.84135149 194.44609823 826.85883345 193.73897495 826.87684517 C141.55332168 828.3171391 110.10075452 850.91105948 74.72105524 888.01675958 C56.81066356 906.95816866 39.86338961 926.69331043 23.68373954 947.12880117 C101.05149827 947.19734666 178.41926066 947.2609463 255.78704154 947.29817373 C256.9317776 947.29872595 258.07651365 947.29927818 259.25593867 947.29984714 C284.1330494 947.31181827 309.01016046 947.32289907 333.88727199 947.33306248 C346.08668052 947.33805191 358.28608896 947.34323811 370.48549736 947.34852773 C371.69949687 947.34905077 372.91349639 947.3495738 374.16428378 947.35011269 C413.52636933 947.3671636 452.88843194 947.39721296 492.25050359 947.43399005 C532.69401395 947.471709 573.13751161 947.49634029 613.58103926 947.50446113 C619.29102472 947.50561378 625.00101014 947.50691633 630.71099555 947.50831014 C631.83482267 947.50857983 632.95864978 947.50884952 634.11653225 947.50912739 C652.22028646 947.5138576 670.32400143 947.53241883 688.42773963 947.5561293 C706.62008985 947.5796615 724.81240112 947.58867729 743.00476603 947.58280668 C753.81836857 947.57976019 764.63182872 947.5879125 775.4454056 947.61199134 C782.6662047 947.6269741 789.88691039 947.62746766 797.10771589 947.61612842 C801.22378838 947.61008103 805.33959131 947.61038215 809.45563506 947.6283339 C813.20225482 947.64455036 816.9483953 947.64225266 820.69500792 947.62536107 C822.67310745 947.62116887 824.65121913 947.63657192 826.62925625 947.65283507 C835.62173148 947.58478311 842.38677493 945.93835495 849.93373954 941.00380117 C855.78948578 934.88188465 859.80632985 928.14203216 859.81089807 919.57549399 C859.81526612 918.20174927 859.81526612 918.20174927 859.81972241 916.80025214 C859.8178422 915.79578122 859.81596199 914.79131031 859.81402481 913.75640088 C859.81596823 912.68364416 859.81791166 911.61088743 859.81991398 910.50562292 C859.82526414 906.88044154 859.82346729 903.25529788 859.82177055 899.63011342 C859.8241872 897.01708752 859.82704903 894.404062 859.83031988 891.79103702 C859.83676076 886.09411006 859.83953689 880.39719044 859.83994567 874.70025998 C859.84058976 866.22898209 859.84697778 857.75771547 859.85469247 849.2864414 C859.86677651 835.91142672 859.87543408 822.53641257 859.88173062 809.161394 C859.89175539 787.93744956 859.91100389 766.71352123 859.933273 745.48958646 C859.9418038 737.32838363 859.95006981 729.16718052 859.95837677 721.00597745 C859.95930177 720.09924542 859.96022678 719.19251339 859.96117982 718.25830462 C859.98317604 696.66891448 860.00296544 675.07952255 860.02163017 653.49012929 C860.02244985 652.54528693 860.02326953 651.60044457 860.02411404 650.62697062 C860.04320642 628.57389181 860.06016716 606.5208131 860.07247245 584.46772939 C860.07300212 583.51877924 860.07353179 582.56982909 860.07407751 581.59212287 C860.07832927 573.9428052 860.08250551 566.29348749 860.08666231 558.64416976 C860.10384186 527.13887004 860.13102763 495.63359236 860.16982268 464.12831156 C860.17528491 459.68354514 860.18061782 455.23877857 860.18586433 450.79401189 C860.18689871 449.91919848 860.18793309 449.04438508 860.18899882 448.14306217 C860.20535389 434.03624647 860.21085431 419.92944613 860.21216199 405.82262185 C860.21366286 391.65915218 860.22576693 377.49572445 860.2489184 363.33227329 C860.26234623 354.90763705 860.26728927 346.48309227 860.26037204 338.05844766 C860.25612582 331.78370593 860.26733173 325.50908421 860.28476234 319.23436727 C860.28937241 316.68400112 860.28882088 314.13361982 860.28281395 311.58325659 C860.27541947 308.13848456 860.28615483 304.69425188 860.301772 301.24951917 C860.29520946 300.24036592 860.28864691 299.23121268 860.2818855 298.19147903 C860.28980458 297.28065625 860.29772365 296.36983348 860.30588269 295.43141001 C860.30643886 294.64273105 860.30699502 293.85405209 860.30756804 293.04147377 C860.49377293 292.09470083 860.49377293 292.09470083 860.68373954 291.12880117 C863.37230118 289.33642674 865.63712504 288.14433933 868.68373954 287.12880117 C869.34373954 287.45880117 870.00373954 287.78880117 870.68373954 288.12880117 C870.74561454 287.20067617 870.74561454 287.20067617 870.80873954 286.25380117 C871.09748954 285.55255117 871.38623954 284.85130117 871.68373954 284.12880117 C874.68373954 283.00380117 874.68373954 283.00380117 877.68373954 282.12880117 C878.01373954 281.46880117 878.34373954 280.80880117 878.68373954 280.12880117 C880.68373954 281.12880117 880.68373954 281.12880117 881.68373954 282.12880117 C881.75205986 281.52036367 881.82038017 280.91192617 881.89077079 280.28505117 C882.68373954 278.12880117 882.68373954 278.12880117 884.75795829 276.78505117 C885.62034111 276.40348867 886.48272392 276.02192617 887.37123954 275.62880117 C890.48930764 274.19653594 893.30728835 272.80501157 896.05873954 270.75380117 C898.68373954 269.12880117 898.68373954 269.12880117 901.05873954 269.37880117 C901.86311454 269.75005117 901.86311454 269.75005117 902.68373954 270.12880117 C902.77655204 269.20067617 902.77655204 269.20067617 902.87123954 268.25380117 C903.13936454 267.55255117 903.40748954 266.85130117 903.68373954 266.12880117 C905.32408147 265.39976031 906.99675872 264.74224874 908.68373954 264.12880117 C910.37695893 262.82935373 912.04769759 261.49953902 913.68373954 260.12880117 C915.68373954 259.12880117 915.68373954 259.12880117 919.18373954 259.19130117 C922.74252421 259.53292929 922.74252421 259.53292929 924.68373954 257.12880117 C924.75231322 321.1459264 924.815909 385.16305598 924.8531121 449.18020803 C924.85394044 450.60193223 924.85394044 450.60193223 924.85478552 452.05237813 C924.86675778 472.65209855 924.87783842 493.25181935 924.88800086 513.85154074 C924.89299011 523.95397073 924.89817634 534.05640062 924.90346611 544.15883046 C924.90398914 545.16413154 924.90451218 546.16943261 924.90505106 547.20519735 C924.92208955 579.77660552 924.95212964 612.3479859 924.98892843 644.91937724 C925.02668232 678.39704231 925.05128678 711.874692 925.0593995 745.352378 C925.06055208 750.08332385 925.06185463 754.81426964 925.06324852 759.54521543 C925.06365305 760.94186128 925.06365305 760.94186128 925.06406576 762.36672219 C925.06878846 777.34113922 925.08732944 792.31550862 925.11106768 807.28990624 C925.13464978 822.3525196 925.14360317 837.41508587 925.13774505 852.47771703 C925.13470801 861.42133849 925.14276642 870.36478725 925.16692972 879.30837745 C925.18198705 885.29163224 925.18235382 891.27477461 925.1710668 897.25803731 C925.1650581 900.66163035 925.16740472 904.06463533 925.18327227 907.46823507 C925.31649501 937.81773727 918.79458186 963.10563597 897.35952079 985.57411367 C881.55378812 1000.66455041 859.63588018 1012.24241117 837.36747909 1012.25760233 C836.10856365 1012.26087453 834.84964821 1012.26414672 833.55258381 1012.26751807 C832.16046996 1012.26610813 830.76835619 1012.26460613 829.37624252 1012.26302224 C827.88745262 1012.26497595 826.39866325 1012.26736509 824.90987468 1012.27015021 C820.80408104 1012.27655099 816.69830698 1012.27671178 812.59250931 1012.27587281 C808.13115344 1012.27604229 803.66980459 1012.28194823 799.20845222 1012.28711367 C790.35332924 1012.29644324 781.49821126 1012.30036231 772.64308397 1012.30263263 C762.03914808 1012.30559373 751.43521883 1012.31429054 740.83128642 1012.32304691 C715.2011921 1012.34389502 689.57109662 1012.35436128 663.94099579 1012.36317652 C651.81910897 1012.36738209 639.69722264 1012.37260417 627.57533624 1012.37786105 C586.09015973 1012.39575063 544.60498309 1012.41074761 503.11980331 1012.41818124 C500.51519732 1012.418656 497.91059133 1012.41913189 495.30598534 1012.4196089 C494.01432336 1012.41984528 492.72266139 1012.42008165 491.39185814 1012.42032519 C484.84755038 1012.4215264 478.30324262 1012.42274185 471.75893486 1012.42396718 C470.4601933 1012.42420733 469.16145174 1012.42444748 467.82335437 1012.42469491 C425.70224053 1012.43259022 383.58115482 1012.45602715 341.46005327 1012.48852313 C296.9388623 1012.52280813 252.41768781 1012.54253109 207.89648342 1012.54582548 C203.01071003 1012.54624303 198.12493666 1012.54672259 193.23916328 1012.54724866 C191.43460929 1012.54743345 191.43460929 1012.54743345 189.59359967 1012.54762197 C170.2204218 1012.54995552 150.84727658 1012.565624 131.47411036 1012.58609051 C112.00765958 1012.6063296 92.54124808 1012.61183486 73.07478873 1012.60231987 C61.50617534 1012.59709765 49.93769257 1012.60301653 38.36909794 1012.62485455 C30.64268482 1012.63833904 22.91636186 1012.63730644 15.1899479 1012.62445259 C10.78684703 1012.61754039 6.38399632 1012.6169395 1.98091756 1012.63401268 C-2.02841356 1012.64943242 -6.03729378 1012.64627887 -10.04661167 1012.6286024 C-11.48445201 1012.62546457 -12.92232699 1012.62896234 -14.36012767 1012.64009414 C-28.11377918 1012.73960222 -38.58769813 1009.87613073 -49.31626046 1001.12880117 C-49.95305733 1000.62864492 -50.58985421 1000.12848867 -51.24594796 999.61317617 C-59.77551937 992.10715332 -64.80458404 979.64963237 -65.56235421 968.51161367 C-66.13635922 954.60161461 -62.44498275 942.60117502 -53.35618784 931.79928581 C-51.09629323 929.40400577 -48.784867 927.07518832 -46.4413234 924.76167279 C-45.55475764 923.87049166 -44.66819189 922.97931053 -43.7547605 922.06112391 C-41.30517447 919.59934469 -38.84338554 917.15010328 -36.37933638 914.70281232 C-33.69658629 912.03386681 -31.02553641 909.35325312 -28.35296059 906.67412657 C-23.67133119 901.98422061 -18.98235182 897.30176641 -14.28843796 892.62415677 C-7.30884294 885.66873787 -0.34078607 878.70184476 6.62497555 871.7325753 C18.34375459 860.0085447 30.07180997 848.29383558 41.80519569 836.58442479 C53.42134319 824.99195186 65.03333927 813.39534631 76.63982856 801.79320318 C77.3617028 801.0716039 78.08357703 800.35000462 78.82732624 799.6065387 C82.49339464 795.94182365 86.15938913 792.27703469 89.82535519 788.61221726 C115.78610508 762.65986723 141.75611498 736.71680176 167.73159111 710.77919179 C192.96513078 685.58239425 218.19446218 660.38139516 243.41811454 635.1746996 C244.5845355 634.0090678 244.5845355 634.0090678 245.77452052 632.81988788 C253.58369196 625.01599056 261.39277799 617.21200779 269.20180145 609.40796239 C285.10943998 593.5104685 301.01764847 577.61354501 316.9262017 561.71696645 C317.65763769 560.98607962 318.38907368 560.25519279 319.1426744 559.50215788 C341.560361 537.10136238 363.98046207 514.70298552 386.40294731 492.30699331 C387.03949937 491.67119147 387.67605144 491.03538964 388.33189296 490.38032108 C414.11435171 464.62832242 439.89936697 438.87888356 465.68373954 413.12880117 C419.15373954 412.79880117 372.62373954 412.46880117 324.68373954 412.12880117 C324.68373954 432.91880117 324.68373954 453.70880117 324.68373954 475.12880117 C303.23373954 475.12880117 281.78373954 475.12880117 259.68373954 475.12880117 C259.60352192 455.14570105 259.60352192 455.14570105 259.58608329 446.56630117 C259.57417102 440.73358142 259.56014482 434.90092503 259.53286064 429.06825429 C259.51098069 424.36091339 259.49913925 419.65364051 259.49398506 414.94625264 C259.49031631 413.15870006 259.48315293 411.3711508 259.47227943 409.58362752 C259.3673014 391.59531086 260.51666274 374.59258436 273.68373954 360.86708242 C283.76332667 352.10650377 296.40623325 346.45592013 309.91438091 347.28902036 C311.45809149 347.41514026 313.00114675 347.5494643 314.54355705 347.69059926 C316.32774753 347.83726968 318.11196962 347.9835561 319.89621818 348.12951833 C320.84178392 348.20962085 321.78734966 348.28972337 322.7615689 348.37225324 C345.01475426 350.23943307 367.27436162 351.36889944 389.58826244 352.19942075 C403.52875654 352.73482117 417.39590344 353.46179325 431.27593982 354.90742666 C468.49651389 358.53719113 493.92917817 353.01681397 532.68373954 346.12880117 C567.99373954 310.81880117 603.30373954 275.50880117 639.68373954 239.12880117 C478.31373954 238.79880117 316.94373954 238.46880117 150.68373954 238.12880117 C150.68373954 368.47880117 150.68373954 498.82880117 150.68373954 633.12880117 C129.23373954 633.12880117 107.78373954 633.12880117 85.68373954 633.12880117 C85.63849794 582.95309373 85.60270472 532.7773912 85.58160888 482.6016674 C85.57910756 476.673863 85.57651891 470.74605864 85.57387626 464.81825429 C85.57335164 463.63816781 85.57282702 462.45808133 85.5722865 461.24223465 C85.56359113 442.15091813 85.54782593 423.05961369 85.52943395 403.96830434 C85.51071077 384.36929275 85.4996177 364.77028749 85.49556255 345.17126733 C85.49282252 333.08405335 85.48417776 320.99687352 85.46790661 308.90967005 C85.45730987 300.61363823 85.454145 292.31762398 85.45673679 284.02158588 C85.45801389 279.23995115 85.45609827 274.45837597 85.44532859 269.67675191 C85.43551912 265.2891473 85.43515399 260.9016417 85.44194175 256.5140323 C85.44277934 254.93636711 85.44030791 253.35869546 85.43397318 251.78104275 C85.34758867 228.91610104 88.46945904 208.81754115 104.74623954 191.44130117 C119.15274349 177.66458974 137.10604565 172.77788466 156.75598726 173.21356923 C160.58741325 173.32138585 164.41806368 173.44563303 168.24866253 173.57959266 C171.54047477 173.6943676 174.83247446 173.80043142 178.12464464 173.90441006 C182.96754034 174.05779218 187.81033282 174.21398514 192.65307128 174.37225324 C206.13755275 174.8105149 219.62301018 175.2157386 233.10891044 175.60759145 C234.17965235 175.63874874 234.17965235 175.63874874 235.27202541 175.67053548 C258.67510481 176.34948427 282.07872779 176.87297025 305.48806083 177.28013784 C306.2576935 177.29357466 307.02732618 177.30701149 307.82028105 177.32085549 C323.73732861 177.59813574 339.65464005 177.85645578 355.5723765 178.09089118 C364.58564872 178.22366977 373.59883444 178.36155661 382.6119622 178.50380117 C383.42748661 178.51658043 384.24301102 178.52935969 385.08324829 178.54252621 C411.29027132 178.95565507 437.47278015 179.71428818 463.66551182 180.66078936 C490.73558129 181.63706224 517.79121592 182.23978351 544.87885562 182.409877 C548.75087282 182.43436215 552.62285036 182.46289346 556.49482048 182.49390966 C557.25640953 182.49988727 558.01799858 182.50586488 558.80266609 182.51202363 C570.07124475 182.6100589 581.29957971 183.01511164 592.55271232 183.5965479 C609.57318263 184.45886059 626.54114196 184.82375383 643.58022392 184.3519457 C644.59171022 184.32536475 644.59171022 184.32536475 645.6236306 184.29824682 C698.71347291 182.78923805 729.47014448 159.18386505 764.85083008 121.78621188 C781.94001408 103.58419757 798.16461223 84.68382717 813.68373954 65.12880117 C736.31598081 65.06025568 658.94821843 64.99665604 581.58043754 64.95942861 C580.43570149 64.95887638 579.29096544 64.95832415 578.11154042 64.95775519 C553.23442968 64.94578406 528.35731863 64.93470326 503.48020709 64.92453985 C491.28079857 64.91955042 479.08139013 64.91436422 466.88198173 64.9090746 C465.66798221 64.90855157 464.45398269 64.90802853 463.20319531 64.90748965 C423.84110976 64.89043874 384.47904715 64.86038938 345.1169755 64.82361228 C304.67346514 64.78589333 264.22996748 64.76126204 223.78643983 64.75314121 C218.07645436 64.75198856 212.36646894 64.75068601 206.65648353 64.74929219 C205.53265642 64.7490225 204.40882931 64.74875281 203.25094683 64.74847495 C185.14719263 64.74374474 167.04347765 64.7251835 148.93973946 64.70147303 C130.74738923 64.67794084 112.55507797 64.66892504 94.36271305 64.67479566 C83.54911051 64.67784214 72.73565036 64.66968983 61.92207348 64.64561099 C54.70127439 64.63062824 47.4805687 64.63013467 40.2597632 64.64147391 C36.14369071 64.6475213 32.02788778 64.64722018 27.91184403 64.62926844 C24.16522426 64.61305197 20.41908378 64.61534967 16.67247117 64.63224126 C14.69437163 64.63643346 12.71625996 64.62103041 10.73822284 64.60476726 C1.74574761 64.67281922 -5.01929585 66.31924738 -12.56626046 71.25380117 C-18.61996516 77.58267427 -22.43590251 84.32713316 -22.44687098 93.13325173 C-22.45239205 94.65827392 -22.45239205 94.65827392 -22.45802465 96.21410465 C-22.45700198 97.33145144 -22.45597931 98.44879823 -22.45492566 99.60000402 C-22.45776787 100.7915461 -22.46061009 101.98308817 -22.46353844 103.21073759 C-22.47045191 106.53388345 -22.47288101 109.85697906 -22.47346586 113.18012856 C-22.47519185 116.78941783 -22.48267549 120.39869579 -22.48944241 124.0079785 C-22.50051252 130.33883036 -22.50787629 136.66967822 -22.51284134 143.00053769 C-22.52024089 152.41435001 -22.53332253 161.82814836 -22.5475871 171.24195247 C-22.57141846 187.07611616 -22.59061387 202.91028234 -22.60718644 218.74445516 C-22.62361545 234.42706054 -22.64209314 250.10966129 -22.66331971 265.79226094 C-22.66463731 266.76658777 -22.66595492 267.7409146 -22.66731246 268.74476648 C-22.67401434 273.69268226 -22.68075296 278.64059799 -22.68750571 283.5885137 C-22.73529566 318.65385894 -22.77847295 353.7192085 -22.818946 388.78456289 C-22.85828072 422.85455306 -22.89969957 456.92453966 -22.943946 490.99452382 C-22.94530853 492.04431902 -22.94667106 493.09411423 -22.94807488 494.1757214 C-22.96176001 504.71799312 -22.97548757 515.26026478 -22.98924622 525.8025364 C-23.01727436 547.27923128 -23.04501923 568.75592651 -23.07259285 590.23262197 C-23.07386105 591.22013152 -23.07512925 592.20764107 -23.07643588 593.22507516 C-23.14205029 644.33669243 -23.20345876 695.44831465 -23.26390755 746.55993825 C-23.2647581 747.27908435 -23.26560865 747.99823045 -23.26648498 748.73916886 C-23.28318912 762.86904616 -23.299707 776.99892368 -23.31626046 791.12880117 C-44.43626046 791.12880117 -65.55626046 791.12880117 -87.31626046 791.12880117 C-87.34868011 758.80135218 -87.34868011 758.80135218 -87.36069405 746.26011831 C-87.36144203 745.47943682 -87.36219002 744.69875534 -87.36296067 743.89441685 C-87.41242593 692.18995226 -87.45711245 640.48548845 -87.48563302 588.78100759 C-87.48618524 587.7824409 -87.48673747 586.78387422 -87.48730643 585.75504794 C-87.49927858 564.05253234 -87.51035924 542.35001638 -87.52052177 520.64749986 C-87.52551104 510.00430399 -87.53069727 499.36110822 -87.53598702 488.7179125 C-87.53651006 487.65879709 -87.53703309 486.59968168 -87.53757198 485.50847186 C-87.5546117 451.19099931 -87.58465271 416.87355313 -87.62144934 382.55609655 C-87.65919977 347.28497436 -87.68380689 312.01386677 -87.69192042 276.74272472 C-87.69307301 271.75879616 -87.69437555 266.77486765 -87.69576943 261.79093915 C-87.69603912 260.8100485 -87.69630881 259.82915785 -87.69658668 258.81854324 C-87.70131012 243.04075154 -87.71985311 227.26300501 -87.74358859 211.48523172 C-87.76716574 195.61606948 -87.77612532 179.74695195 -87.77026597 163.87777282 C-87.76722799 154.45424929 -87.77529575 145.03088962 -87.79945063 135.60739574 C-87.81450054 129.30425115 -87.81487988 123.00121329 -87.80358771 116.69806121 C-87.79757533 113.11184027 -87.79769656 109.52592818 -87.81579319 105.93974096 C-87.9621392 75.11282789 -81.80498246 49.5480642 -59.99204171 26.68348867 C-44.18630904 11.59305193 -22.2684011 0.01519116 0 0 Z M913.68373954 261.12880117 C914.68373954 263.12880117 914.68373954 263.12880117 914.68373954 263.12880117 Z M914.68373954 265.12880117 C915.68373954 267.12880117 915.68373954 267.12880117 915.68373954 267.12880117 Z M905.68373954 266.12880117 C905.35373954 266.78880117 905.02373954 267.44880117 904.68373954 268.12880117 C905.34373954 268.12880117 906.00373954 268.12880117 906.68373954 268.12880117 C906.35373954 267.46880117 906.02373954 266.80880117 905.68373954 266.12880117 Z M900.68373954 271.12880117 C901.34373954 271.78880117 902.00373954 272.44880117 902.68373954 273.12880117 C902.68373954 272.46880117 902.68373954 271.80880117 902.68373954 271.12880117 C902.02373954 271.12880117 901.36373954 271.12880117 900.68373954 271.12880117 Z M893.68373954 273.12880117 C894.01373954 273.78880117 894.34373954 274.44880117 894.68373954 275.12880117 C895.01373954 274.46880117 895.34373954 273.80880117 895.68373954 273.12880117 C895.02373954 273.12880117 894.36373954 273.12880117 893.68373954 273.12880117 Z M896.68373954 273.12880117 C897.68373954 275.12880117 897.68373954 275.12880117 897.68373954 275.12880117 Z M890.68373954 277.12880117 C891.34373954 277.78880117 892.00373954 278.44880117 892.68373954 279.12880117 C892.68373954 278.46880117 892.68373954 277.80880117 892.68373954 277.12880117 C892.02373954 277.12880117 891.36373954 277.12880117 890.68373954 277.12880117 Z M889.68373954 278.12880117 C890.68373954 280.12880117 890.68373954 280.12880117 890.68373954 280.12880117 Z M868.68373954 289.12880117 C868.35373954 289.78880117 868.02373954 290.44880117 867.68373954 291.12880117 C868.67373954 290.79880117 869.66373954 290.46880117 870.68373954 290.12880117 C870.02373954 289.79880117 869.36373954 289.46880117 868.68373954 289.12880117 Z M704.68373954 382.12880117 C705.01373954 382.78880117 705.34373954 383.44880117 705.68373954 384.12880117 C706.01373954 383.46880117 706.34373954 382.80880117 706.68373954 382.12880117 C706.02373954 382.12880117 705.36373954 382.12880117 704.68373954 382.12880117 Z " fill="#FFFFFF" transform="translate(87.31626045703888,-0.128801167011261)"/>
<path d="" fill="#FFFFFF" transform="translate(0,0)"/>
<path d="" fill="#FFFFFF" transform="translate(0,0)"/>
<path d="" fill="#FFFFFF" transform="translate(0,0)"/>
<path d="" fill="#FFFFFF" transform="translate(0,0)"/>
</svg>
